<svg xmlns="http://www.w3.org/2000/svg" viewBox="0 0 180.59 274.95"><defs><style>.cls-1,.cls-6{fill:#747575;}.cls-1,.cls-3{stroke:#000;stroke-linecap:round;stroke-linejoin:round;stroke-width:3px;}.cls-2,.cls-3{fill:#3f4040;}.cls-4{fill:#fec013;}.cls-5{fill:#dcdcdc;}.cls-7{fill:#fff;}</style></defs><g id="Layer_2" data-name="Layer 2"><g id="Layer_1-2" data-name="Layer 1"><path class="cls-1" d="M113.11,209.8c-8.51,9.06-38.82,36.44-56.4,52-5.28,4.68-9.41,8.3-11.46,10.05-8.88,7.56-15.83-14.44-11.25-23.71,1-2,3.35-6.48,6.62-12.36,11.92-21.42,35.88-61.3,49-66.38C116.53,159,124.17,198,113.11,209.8Z"/><path class="cls-2" d="M55.43,261.08c-4.72,4.18-8.41,7.42-10.24,9-7.94,6.76-14.15-12.91-10.06-21.19.89-1.79,3-5.79,5.92-11.05C43.47,245.28,49.47,261.53,55.43,261.08Z"/><path class="cls-1" d="M178.58,149.07c-.79,2.6-5.48,7.17-11.66,11.84-10.12,7.65-24.24,15.57-31.82,15.55-12.2-.05-27.52-32.68-27.52-32.68-7.25-14.6,10.74-24.67,14.78-19.19,4.52,6.15,17.61,25.62,17.61,25.62a155.79,155.79,0,0,1,14.71-8.38,62.57,62.57,0,0,1,9.26-3.78C176.38,134.38,180.66,142.22,178.58,149.07Z"/><path class="cls-2" d="M177.58,149.07c-.72,2.38-5,6.56-10.66,10.83-8.29-1.92-10.66-10.6-11.19-17.45a57.46,57.46,0,0,1,8.46-3.46C175.57,135.64,179.48,142.81,177.58,149.07Z"/><path class="cls-1" d="M61.51,217.15c-14.82,3-38.34-24.27-41.21-36.36s19.16,10.31,33.17,12.38S72.3,214.94,61.51,217.15Z"/><path class="cls-3" d="M20.05,182.58S5.51,185.22,2.56,172.49s1.23-14,1.23-14S21,157.35,24.72,178.27C22.61,178.66,19.05,178.06,20.05,182.58Z"/><path class="cls-1" d="M117.8,119c9.82,4.62,17.47,50.84,1.74,81.42s-72.94,31.8-72.35-6.56S59.62,140.21,65.52,132C73.69,120.62,93.47,107.57,117.8,119Z"/><path class="cls-4" d="M110.39,136.37a17.13,17.13,0,0,0-4.5-1.32c0,.07,0,.13.07.21a4.91,4.91,0,0,1,.24,1.82,4.76,4.76,0,0,1-.51,1.81,3.91,3.91,0,0,1-1.25,1.37,3.79,3.79,0,0,1-.34.2l.52,0c1.9-.13,3.8-.22,5.71-.32a13.29,13.29,0,0,0,3.32-.46c.54-.17,1.06-.36,1.59-.54C113.57,138.31,112.06,137.13,110.39,136.37Z"/><path class="cls-4" d="M98.54,123.09a18,18,0,0,1-3-.46,5.94,5.94,0,0,1-1.53-.63,2.67,2.67,0,0,1-.74-.66,1.58,1.58,0,0,1-.66.33l-.9.17a58.12,58.12,0,0,0-1.13,10c0,1.69.11,3.38.27,5.06a1.1,1.1,0,0,1,.09-.14A12.8,12.8,0,0,1,94.07,134a16.75,16.75,0,0,1,8.48-2.57,20.05,20.05,0,0,1,9,1.76,18.79,18.79,0,0,1,2.65,1.39c-.38-1.12-.78-2.22-1.26-3.3a31.74,31.74,0,0,0-2.27-4.17c-.87-1.36-2-2.47-2.9-3.8a2.49,2.49,0,0,1-.15-.28c-1.89.11-3.68.17-5.3.18C101,123.22,99.67,123.18,98.54,123.09Z"/><path class="cls-4" d="M100.85,140.42a3.78,3.78,0,0,1-.72-.52,1.6,1.6,0,0,1-.25-.27,5,5,0,0,1-.82-1.34,4.8,4.8,0,0,1-.35-1c-.08-.5-.13-1-.19-1.51a2.45,2.45,0,0,1,0-.27,16,16,0,0,0-2.59,1A14.48,14.48,0,0,0,93,138.56a21.61,21.61,0,0,0-1.71,1.58c.05.18.14.31.12.34a6.11,6.11,0,0,0,1.19.05c2.85.13,5.72.15,8.59.06Z"/><path class="cls-5" d="M50,38.46l.24-.28a57.81,57.81,0,0,1-7-3.43l.48.33S33.89,41,30.25,47.5A35.13,35.13,0,0,1,40,32.78,49.62,49.62,0,0,1,33.8,28c-2.17,1.47-6.47,4.67-8.39,8.1a25.2,25.2,0,0,1,6.41-10,35.15,35.15,0,0,1-2.39-2.75,27.46,27.46,0,0,1-4.31-7.9,41,41,0,0,0-3.24,15.47,26.84,26.84,0,0,0,4.53,15.62,19.09,19.09,0,0,0,11.92,7.74c2.44-3,4.59-5.91,6.46-8.56C46.83,42.78,48.54,40.27,50,38.46Z"/><path class="cls-2" d="M141.06,83.25a2.06,2.06,0,0,0-.34-.51l-1.38-.35-.6-.07c-1.11-.11-2.6-.16-4.33-.16-3.44,0-7.85.21-12.51.6.2,1.31,1,8-1,18.66,0-6.73-3.22-15.55-4.23-18.16-4.35.47-8.68,1.08-12.42,1.79a54.41,54.41,0,0,0-7.73,2,11.36,11.36,0,0,0-2.41,1.12,2,2,0,0,0-.4.36,9.18,9.18,0,0,0-1,3.45,40.2,40.2,0,0,0-.38,6,84.38,84.38,0,0,0,1.81,16.95,24.4,24.4,0,0,0,1.09,3.65,5.36,5.36,0,0,0,.49,1h0a1.55,1.55,0,0,0,.29.14,8.34,8.34,0,0,0,1.4.33,34.66,34.66,0,0,0,5,.3,148.23,148.23,0,0,0,30.31-3.82,44.24,44.24,0,0,0,7.42-2.39,8,8,0,0,0,2.12-1.28,1.33,1.33,0,0,0,.27-.33,17.09,17.09,0,0,0,.85-4.15,61.42,61.42,0,0,0,.3-6.4,73.47,73.47,0,0,0-1.53-15.62A13.41,13.41,0,0,0,141.06,83.25Zm-29.27,21.28c-1.24.52-2.36-.07-3.63.67s-1.58,2.06-3.08,2.59c-3.31,1.19-4.67-1.2-4.17-4.18.89-5.37,7.36-13.21,12.83-7.12C114.43,99.18,115.23,103.1,111.79,104.53Zm23.87.41c-1.49-.53-1.85-1.87-3.08-2.59s-2.38-.15-3.63-.67c-3.44-1.43-2.63-5.35-1.94-8,5.47-6.09,11.94,1.75,12.83,7.12C140.33,103.74,139,106.13,135.66,104.94Z"/><path class="cls-5" d="M148.17,37.1c-4.95-4.53-14.51-7-16.36-7.48-.81,1.12-1.43,1.88-1.7,2.21,5.45,8.32,10.19,14,14.57,17.83a24.83,24.83,0,0,0,5-8.55,33.27,33.27,0,0,0,1.75-11A48.53,48.53,0,0,0,149.58,17,43.76,43.76,0,0,0,145.38,7a13.93,13.93,0,0,0-2.76-3.52A2.5,2.5,0,0,0,142,3a2.6,2.6,0,0,0-.12.24,38.36,38.36,0,0,1-3,13.71l.12-.16a25.25,25.25,0,0,1,10.18,7.92c-3.29-3-9.39-4.78-11.37-5.29-.62,1.36-1.28,2.63-1.93,3.81s-1.16,2-1.72,2.9A35.07,35.07,0,0,1,148.17,37.1Z"/><polygon class="cls-6" points="98.07 28.04 98.07 28.04 98.07 28.04 98.07 28.04"/><path class="cls-6" d="M125.8,59.43v0h0Z"/><path class="cls-7" d="M83.48,71.21a5.1,5.1,0,0,1-2.59-1.53,6.12,6.12,0,0,1-1.48-2.88,5.92,5.92,0,0,1,.15-3.31,5.78,5.78,0,0,1,1.09-1.87,4.3,4.3,0,0,1,.79-.68,3.94,3.94,0,0,0-.58-.06,3.79,3.79,0,0,0-.94.12,4.16,4.16,0,0,0-2.47,1.81,6.3,6.3,0,0,0-1,3.5,7.42,7.42,0,0,0,.23,1.84,7.08,7.08,0,0,0,2.12,3.6A4.85,4.85,0,0,0,82,73.05a3.79,3.79,0,0,0,.94-.12,4.13,4.13,0,0,0,2.33-1.63A5.74,5.74,0,0,1,83.48,71.21Z"/><path class="cls-6" d="M158.77,60.49a35.64,35.64,0,0,1-9.93-4c-6.62-4-13.35-10.86-21.48-23.34a15.1,15.1,0,0,0-5.06-1.93,30.36,30.36,0,0,0-5.93-.54c-1.34,0-2.58.07-3.61.16a1.55,1.55,0,0,1-.32.2,8.29,8.29,0,0,1-2.13.51,19.06,19.06,0,0,1-2.24.13c-.51,0-1,0-1.4-.06a1.48,1.48,0,0,1-1.14-.69,1.52,1.52,0,0,1-.14-1.33,4.13,4.13,0,0,1,.45-.82c.16-.23.34-.46.51-.7.31-.4.6-.81.82-1.16l-.29.05c-.37.08-.77.19-1.15.31-.78.24-1.5.53-1.85.67a13.2,13.2,0,0,0-3.82,2.38l0,0-.21.24c-.17.19-.38.43-.63.67a3.06,3.06,0,0,1-.67.49,1.67,1.67,0,0,1-.85.23h-.15a2.85,2.85,0,0,1-.89-.23,2.22,2.22,0,0,1-.76-.55,2.74,2.74,0,0,1-.65-1.41,5.45,5.45,0,0,1,0-.78c0-.52,0-1,0-1.31a2,2,0,0,0-.23.14,2.57,2.57,0,0,0-.62.7,4.14,4.14,0,0,0-.65,2.08,1.31,1.31,0,0,0,.14.68A1.5,1.5,0,0,1,91.5,33.1a10.58,10.58,0,0,0-5.26-2.66,31.86,31.86,0,0,0-7.14-.7q-.85,0-1.71,0c1.1.76,2.2,1.55,3.28,2.45h0a1.5,1.5,0,1,1-1.91,2.31l-.07-.06a1.42,1.42,0,0,1-.58.15l-.37,0-1.06.06c-.91.06-2.2.15-3.71.28-3,.25-7,.66-10.52,1.24a43.86,43.86,0,0,0-6.24,1.41,9.21,9.21,0,0,0-2.1.92,9.5,9.5,0,0,0-1.77,1.8c-.76.94-1.65,2.16-2.65,3.57-2,2.83-4.46,6.43-7.41,10.18C36.7,61.19,29.37,68.85,19.82,72.9a32.35,32.35,0,0,0,9.71,10.9,20.83,20.83,0,0,0,11.82,3.57,29.53,29.53,0,0,0,10.7-2.19,1.51,1.51,0,0,1,2,1.62h0v.06c0,.06,0,.14,0,.25s-.06.56-.09,1c-.07.86-.15,2.1-.15,3.6a42.32,42.32,0,0,0,1.08,9.67,26.81,26.81,0,0,0,4.74,10.31A20.54,20.54,0,0,0,65.9,117a28.76,28.76,0,0,0,14,3.12A58.46,58.46,0,0,0,92,118.73h0c-.14-.39-.27-.81-.4-1.26a46.67,46.67,0,0,1-1.07-4.83A38.65,38.65,0,0,1,85.91,111a36.29,36.29,0,0,1-10.41-6.46,24.4,24.4,0,0,1-5.3-6.8c-.45.5-.87,1-1.25,1.51a1.5,1.5,0,1,1-2.37-1.84A25.59,25.59,0,0,1,68.7,95a10.36,10.36,0,0,1,3-2.14,6.29,6.29,0,0,1,2.58-.58h.19a1.5,1.5,0,0,1-.1,3h-.09a3.19,3.19,0,0,0-1.35.31l-.35.2a21.16,21.16,0,0,0,4.76,6.41,30.36,30.36,0,0,0,6.27,4.43,38.91,38.91,0,0,0,6.47,2.76,88.4,88.4,0,0,1-.81-11.45,44.52,44.52,0,0,1,.41-6.42,11.68,11.68,0,0,1,1.53-4.69,4.57,4.57,0,0,1,1.16-1.12,10.27,10.27,0,0,1,1.51-.85,26,26,0,0,1,4.06-1.41,95.59,95.59,0,0,1,11.43-2.25c6.74-1,14.23-1.65,20.34-1.9a57.29,57.29,0,0,1-6.65-3.05,25.66,25.66,0,0,1-6.9-5.17,10.91,10.91,0,0,1-2.31-3.85,1.51,1.51,0,0,1,1-1.9,1.6,1.6,0,0,1,.57-.07,9.77,9.77,0,0,1-.36-1.08h0a10.46,10.46,0,0,1-.32-2.57,9.3,9.3,0,0,1,1.5-5.17,7.19,7.19,0,0,1,4.24-3,6.82,6.82,0,0,1,1.67-.21,7.82,7.82,0,0,1,5.15,2,10.1,10.1,0,0,1,3,5.12h0a10.34,10.34,0,0,1,.32,2.57,9.3,9.3,0,0,1-1.5,5.17,7.28,7.28,0,0,1-4.24,3,6.81,6.81,0,0,1-1.67.2,7.41,7.41,0,0,1-3.28-.79c.43.36.88.72,1.37,1.07a42.39,42.39,0,0,0,8.19,4.36,87.08,87.08,0,0,0,10.46,3.5l.79.13a6.14,6.14,0,0,1,1,.31c-.53-1.84-1.11-3.58-1.71-5.15a68.29,68.29,0,0,0-4.26-9.28v0h0a1.5,1.5,0,1,1,2.58-1.52,69.17,69.17,0,0,1,4.3,9.24c.24.65.49,1.32.74,2a1.53,1.53,0,0,1,.77-.06h0l.11,0,.49.06c.44,0,1.08.09,1.89.09a21.68,21.68,0,0,0,10.16-2.52,24,24,0,0,0,10.12-10.88A67.93,67.93,0,0,1,158.77,60.49Zm-91,.6A.5.5,0,0,1,67,60.6a17.84,17.84,0,0,1,1.25-3,18.32,18.32,0,0,1,1.71-2.94,14,14,0,0,1,4.88-4.55,10.14,10.14,0,0,1,6.82-.91,6.52,6.52,0,0,1,3,1.6,4.8,4.8,0,0,1,1,1.13c.22.42.35.86.59,1.27.36.62-.39,1.45-1,1A5.22,5.22,0,0,0,83,53.66a20.43,20.43,0,0,0-2.35-.12,10.07,10.07,0,0,0-4.24,1,19,19,0,0,0-4.49,2.79C70.51,58.52,69.27,60,67.81,61.09Zm21.49,7.5a9.11,9.11,0,0,1-1.43,4.2,7.23,7.23,0,0,1-4.24,3,6.82,6.82,0,0,1-1.67.21A7.88,7.88,0,0,1,76.81,74a10.11,10.11,0,0,1-3-5.11,10.4,10.4,0,0,1-.32-2.57A9.3,9.3,0,0,1,75,61.14a7.16,7.16,0,0,1,4.24-3,6.82,6.82,0,0,1,1.67-.21,7.87,7.87,0,0,1,5.15,2c.12.11.23.25.35.37a4.41,4.41,0,0,1,1.51,1.13,7.62,7.62,0,0,1,1.18,2.1c.18.47.33,1,.47,1.43A5.21,5.21,0,0,1,89.3,68.59ZM126.93,50.5a24.62,24.62,0,0,0-3.85-1.73,6.25,6.25,0,0,0-1.83-.16l-.37,0-.23,0-.84.2c-.31.07-.62.17-.93.26l-.33.1-.1,0-.08,0-.3.17-.26.16a4.53,4.53,0,0,0-.49.49l-.07.11a6.6,6.6,0,0,1-.5.68,3.92,3.92,0,0,1-1.08.81c.18-.12,0,.06-.12.1s-.23.15-.35.22a1.73,1.73,0,0,1-.83.23.62.62,0,0,1-.61-.61c0-.32,0-.64,0-1a4.5,4.5,0,0,1,0-1.33,4.82,4.82,0,0,1,1.34-2.25,6.35,6.35,0,0,1,4.41-1.91A7.84,7.84,0,0,1,124,47a12.14,12.14,0,0,1,3.22,3.29C127.29,50.42,127.09,50.57,126.93,50.5Z"/><path class="cls-7" d="M121.9,57.81a3.59,3.59,0,0,1,1.31-1.2,3.22,3.22,0,0,1,.42-.16,4.23,4.23,0,0,0-1.54-.31,3.79,3.79,0,0,0-.94.12,4.14,4.14,0,0,0-2.47,1.8,6.36,6.36,0,0,0-1,3.51,7.48,7.48,0,0,0,.23,1.84h0A7.08,7.08,0,0,0,120,67a4.78,4.78,0,0,0,3.16,1.29,3.77,3.77,0,0,0,.94-.11,4.2,4.2,0,0,0,2.47-1.81c.08-.12.15-.26.22-.39a4.32,4.32,0,0,1-1.95.42A4.41,4.41,0,0,1,122,65.26,5,5,0,0,1,120.84,60,9.43,9.43,0,0,1,121.9,57.81Z"/><path class="cls-6" d="M84.61,65.7a1.28,1.28,0,0,0,.15.25h0a6.74,6.74,0,0,0-.24-.88c0,.13,0,.25,0,.37A1.82,1.82,0,0,0,84.61,65.7Z"/><path d="M169.33,59.12a73.18,73.18,0,0,1-9.84-1.55,32.53,32.53,0,0,1-12.48-6,27.76,27.76,0,0,0,5.55-9.46,36.36,36.36,0,0,0,1.92-12,52.68,52.68,0,0,0-4.32-20.34A32.16,32.16,0,0,0,146.31,3a11.11,11.11,0,0,0-2-2.07,5.38,5.38,0,0,0-1.11-.65A3.3,3.3,0,0,0,141.86,0a2.75,2.75,0,0,0-1.9.76,4,4,0,0,0-1,1.73,1.26,1.26,0,0,0-.08.47c0,7-2.77,13.79-5.58,18.84a60.79,60.79,0,0,1-3.86,6c-.53.72-1,1.28-1.26,1.66l-.33.4a19.55,19.55,0,0,0-4.92-1.66,33.37,33.37,0,0,0-6.52-.6,45.42,45.42,0,0,0-6.44.47c.1-.19.2-.38.29-.6a3.15,3.15,0,0,0,.27-1.25,2.5,2.5,0,0,0-.21-1,2.33,2.33,0,0,0-.66-.86h0a2.34,2.34,0,0,0-1-.48,3.57,3.57,0,0,0-.89-.1,6.91,6.91,0,0,0-1.5.18,23.09,23.09,0,0,0-3.48,1.12,16.46,16.46,0,0,0-4.56,2.8c0-.12,0-.24,0-.37a4.91,4.91,0,0,0-.06-.83,2.79,2.79,0,0,0-.23-.73A2.37,2.37,0,0,0,97,24.93a2.77,2.77,0,0,0-1.4-.35l-.41,0a4,4,0,0,0-2,.81,6,6,0,0,0-1.82,2.35A8,8,0,0,0,90.93,29a17,17,0,0,0-4-1.48,34.51,34.51,0,0,0-7.83-.78c-2.3,0-4.49.15-6.29.28a1.48,1.48,0,0,0-1.33,1.09,1.5,1.5,0,0,0,.58,1.63c1,.72,2,1.39,3,2.07-2,.14-4.77.37-7.75.71-2.82.33-5.8.76-8.42,1.31a34.15,34.15,0,0,0-3.61,1A12.51,12.51,0,0,0,52.53,36a1.5,1.5,0,0,0-.55-.36h0l0,0a56.91,56.91,0,0,1-12.22-6.69,38.24,38.24,0,0,1-8.13-7.77,22.42,22.42,0,0,1-4.52-10.52,1.5,1.5,0,0,0-2.82-.5,45.27,45.27,0,0,0-5.36,20.72A29.74,29.74,0,0,0,24,48.22a22.07,22.07,0,0,0,12.15,8.57c-.89,1-1.8,2-2.76,3-4.59,4.62-10,8.71-16.22,11a1.52,1.52,0,0,0-.89.88,1.5,1.5,0,0,0,.09,1.24c3.38,6.21,7.27,10.6,11.52,13.43a23.94,23.94,0,0,0,13.49,4.07,31,31,0,0,0,9.53-1.6c-.05.82-.09,1.81-.09,2.94,0,5,.74,12.74,4.78,19.4a23.54,23.54,0,0,0,8.89,8.54,31.72,31.72,0,0,0,15.42,3.49,57.37,57.37,0,0,0,9-.77,30.5,30.5,0,0,0-2,9.92,39.73,39.73,0,0,0,.34,6.72c.25,1.91.51,4,2.47,5a7.93,7.93,0,0,0,3.39.41c1.12,0,2.24,0,3.36-.07,2.31-.09,4.61-.36,6.9-.67a44.75,44.75,0,0,0,6.77-1.42,26.69,26.69,0,0,1,3.49-1c1.18-.18,2.37-.34,3.55-.51a1.07,1.07,0,0,0,.78-1,13.62,13.62,0,0,0-.8-5,41.14,41.14,0,0,0-1.63-4.68c-.63-1.52-1.3-3-2-4.48-.49-.93-1-1.88-1.48-2.78,5.13-.46,10.68-1.23,15.75-2.19A81.78,81.78,0,0,0,139,117.69a21.81,21.81,0,0,0,3.87-1.73,8,8,0,0,0,1.4-1,4,4,0,0,0,1-1.37,19.08,19.08,0,0,0,1.06-5,62.85,62.85,0,0,0,.32-6.72c0-1,0-1.92-.05-2.89a37.51,37.51,0,0,0,.34-5.06,54.81,54.81,0,0,0-2.58-15.77,20.84,20.84,0,0,0,2.31.12,24.79,24.79,0,0,0,11.57-2.87c4.5-2.39,9.11-6.72,12.34-14.18a1.5,1.5,0,0,0-.08-1.35A1.48,1.48,0,0,0,169.33,59.12ZM137.81,19.44c2,.51,8.08,2.28,11.37,5.29A25.25,25.25,0,0,0,139,16.81l-.12.16a38.36,38.36,0,0,0,3-13.71A2.6,2.6,0,0,1,142,3a2.5,2.5,0,0,1,.67.42A13.93,13.93,0,0,1,145.38,7,43.76,43.76,0,0,1,149.58,17a48.53,48.53,0,0,1,1.9,13.06,33.27,33.27,0,0,1-1.75,11,24.83,24.83,0,0,1-5,8.55c-4.38-3.86-9.12-9.51-14.57-17.83.27-.33.89-1.09,1.7-2.21,1.85.45,11.41,2.95,16.36,7.48a35.07,35.07,0,0,0-14-11c.56-.89,1.14-1.85,1.72-2.9S137.19,20.8,137.81,19.44ZM98.07,28ZM26.41,46.48a26.84,26.84,0,0,1-4.53-15.62,41,41,0,0,1,3.24-15.47,27.46,27.46,0,0,0,4.31,7.9A35.15,35.15,0,0,0,31.82,26a25.2,25.2,0,0,0-6.41,10c1.92-3.43,6.22-6.63,8.39-8.1A49.62,49.62,0,0,0,40,32.78,35.13,35.13,0,0,0,30.25,47.5C33.89,41,43.71,35.08,43.71,35.08l-.48-.33a57.81,57.81,0,0,0,7,3.43l-.24.28c-1.47,1.81-3.18,4.32-5.22,7.2-1.87,2.65-4,5.6-6.46,8.56A19.09,19.09,0,0,1,26.41,46.48Zm66.22,94.05a6.11,6.11,0,0,1-1.19-.05s-.07-.16-.12-.34A21.61,21.61,0,0,1,93,138.56,14.48,14.48,0,0,1,96,136.51a16,16,0,0,1,2.59-1,2.45,2.45,0,0,0,0,.27c.06.5.11,1,.19,1.51a4.8,4.8,0,0,0,.35,1,5,5,0,0,0,.82,1.34,1.6,1.6,0,0,0,.25.27,3.78,3.78,0,0,0,.72.52l.37.17C98.35,140.68,95.48,140.66,92.63,140.53Zm17.7-.42c-1.91.1-3.81.19-5.71.32l-.52,0a3.79,3.79,0,0,0,.34-.2,3.91,3.91,0,0,0,1.25-1.37,4.76,4.76,0,0,0,.51-1.81,4.91,4.91,0,0,0-.24-1.82c0-.08,0-.14-.07-.21a17.13,17.13,0,0,1,4.5,1.32c1.67.76,3.18,1.94,4.85,2.74-.53.18-1,.37-1.59.54A13.29,13.29,0,0,1,110.33,140.11Zm-2.53-16.78c.9,1.33,2,2.44,2.9,3.8A31.74,31.74,0,0,1,113,131.3c.48,1.08.88,2.18,1.26,3.3a18.79,18.79,0,0,0-2.65-1.39,20.05,20.05,0,0,0-9-1.76A16.75,16.75,0,0,0,94.07,134,12.8,12.8,0,0,0,91,136.77a1.1,1.1,0,0,0-.09.14c-.16-1.68-.27-3.37-.27-5.06a58.12,58.12,0,0,1,1.13-10l.9-.17a1.58,1.58,0,0,0,.66-.33,2.67,2.67,0,0,0,.74.66,5.94,5.94,0,0,0,1.53.63,18,18,0,0,0,3,.46c1.13.09,2.41.13,3.81.14,1.62,0,3.41-.07,5.3-.18A2.49,2.49,0,0,0,107.8,123.33Zm35.52-15.07a17.09,17.09,0,0,1-.85,4.15,1.33,1.33,0,0,1-.27.33,8,8,0,0,1-2.12,1.28,44.24,44.24,0,0,1-7.42,2.39,148.23,148.23,0,0,1-30.31,3.82,34.66,34.66,0,0,1-5-.3,8.34,8.34,0,0,1-1.4-.33,1.55,1.55,0,0,1-.29-.14h0a5.36,5.36,0,0,1-.49-1,24.4,24.4,0,0,1-1.09-3.65A84.38,84.38,0,0,1,92.26,97.9a40.2,40.2,0,0,1,.38-6,9.18,9.18,0,0,1,1-3.45,2,2,0,0,1,.4-.36A11.36,11.36,0,0,1,96.49,87a54.41,54.41,0,0,1,7.73-2c3.74-.71,8.07-1.32,12.42-1.79,1,2.61,4.21,11.43,4.23,18.16,2-10.65,1.23-17.35,1-18.66,4.66-.39,9.07-.6,12.51-.6,1.73,0,3.22,0,4.33.16l.6.07,1.38.35a2.06,2.06,0,0,1,.34.51,13.41,13.41,0,0,1,1,3,73.47,73.47,0,0,1,1.53,15.62A61.42,61.42,0,0,1,143.32,108.26ZM156.8,72.74a21.68,21.68,0,0,1-10.16,2.52c-.81,0-1.45-.05-1.89-.09l-.49-.06-.11,0h0a1.53,1.53,0,0,0-.77.06c-.25-.69-.5-1.36-.74-2a69.17,69.17,0,0,0-4.3-9.24,1.5,1.5,0,1,0-2.58,1.52h0v0A68.29,68.29,0,0,1,140,74.73c.6,1.57,1.18,3.31,1.71,5.15a6.14,6.14,0,0,0-1-.31l-.79-.13a87.08,87.08,0,0,1-10.46-3.5,42.39,42.39,0,0,1-8.19-4.36c-.49-.35-.94-.71-1.37-1.07a7.41,7.41,0,0,0,3.28.79,6.81,6.81,0,0,0,1.67-.2,7.28,7.28,0,0,0,4.24-3,9.3,9.3,0,0,0,1.5-5.17,10.34,10.34,0,0,0-.32-2.57h0a10.1,10.1,0,0,0-3-5.12,7.82,7.82,0,0,0-5.15-2,6.82,6.82,0,0,0-1.67.21,7.19,7.19,0,0,0-4.24,3,9.3,9.3,0,0,0-1.5,5.17,10.46,10.46,0,0,0,.32,2.57h0a9.77,9.77,0,0,0,.36,1.08,1.6,1.6,0,0,0-.57.07,1.51,1.51,0,0,0-1,1.9A10.91,10.91,0,0,0,116.15,71a25.66,25.66,0,0,0,6.9,5.17,57.29,57.29,0,0,0,6.65,3.05c-6.11.25-13.6.91-20.34,1.9a95.59,95.59,0,0,0-11.43,2.25,26,26,0,0,0-4.06,1.41,10.27,10.27,0,0,0-1.51.85,4.57,4.57,0,0,0-1.16,1.12,11.68,11.68,0,0,0-1.53,4.69,44.52,44.52,0,0,0-.41,6.42,88.4,88.4,0,0,0,.81,11.45,38.91,38.91,0,0,1-6.47-2.76,30.36,30.36,0,0,1-6.27-4.43,21.16,21.16,0,0,1-4.76-6.41l.35-.2a3.19,3.19,0,0,1,1.35-.31h.09a1.5,1.5,0,0,0,.1-3h-.19a6.29,6.29,0,0,0-2.58.58,10.36,10.36,0,0,0-3,2.14,25.59,25.59,0,0,0-2.12,2.46A1.5,1.5,0,1,0,69,99.26c.38-.49.8-1,1.25-1.51a24.4,24.4,0,0,0,5.3,6.8A36.29,36.29,0,0,0,85.91,111a38.65,38.65,0,0,0,4.67,1.63,46.67,46.67,0,0,0,1.07,4.83c.13.45.26.87.4,1.26h0a58.46,58.46,0,0,1-12.16,1.41,28.76,28.76,0,0,1-14-3.12,20.54,20.54,0,0,1-6.29-5.33,26.81,26.81,0,0,1-4.74-10.31,42.32,42.32,0,0,1-1.08-9.67c0-1.5.08-2.74.15-3.6,0-.43.07-.76.09-1s0-.19,0-.25v-.06h0a1.51,1.51,0,0,0-2-1.62,29.53,29.53,0,0,1-10.7,2.19A20.83,20.83,0,0,1,29.53,83.8a32.35,32.35,0,0,1-9.71-10.9c9.55-4.05,16.88-11.71,22.46-18.8,2.95-3.75,5.4-7.35,7.41-10.18,1-1.41,1.89-2.63,2.65-3.57a9.5,9.5,0,0,1,1.77-1.8,9.21,9.21,0,0,1,2.1-.92,43.86,43.86,0,0,1,6.24-1.41C66,35.64,70,35.23,73,35c1.51-.13,2.8-.22,3.71-.28l1.06-.06.37,0a1.42,1.42,0,0,0,.58-.15l.07.06a1.5,1.5,0,1,0,1.91-2.31h0c-1.08-.9-2.18-1.69-3.28-2.45q.85,0,1.71,0a31.86,31.86,0,0,1,7.14.7A10.58,10.58,0,0,1,91.5,33.1a1.5,1.5,0,0,0,2.36-1.83,1.31,1.31,0,0,1-.14-.68,4.14,4.14,0,0,1,.65-2.08,2.57,2.57,0,0,1,.62-.7,2,2,0,0,1,.23-.14c0,.34,0,.79,0,1.31a5.45,5.45,0,0,0,0,.78,2.74,2.74,0,0,0,.65,1.41,2.22,2.22,0,0,0,.76.55,2.85,2.85,0,0,0,.89.23h.15a1.67,1.67,0,0,0,.85-.23,3.06,3.06,0,0,0,.67-.49c.25-.24.46-.48.63-.67l.21-.24,0,0a13.2,13.2,0,0,1,3.82-2.38c.35-.14,1.07-.43,1.85-.67.38-.12.78-.23,1.15-.31l.29-.05c-.22.35-.51.76-.82,1.16-.17.24-.35.47-.51.7a4.13,4.13,0,0,0-.45.82,1.52,1.52,0,0,0,.14,1.33,1.48,1.48,0,0,0,1.14.69c.41,0,.89.06,1.4.06a19.06,19.06,0,0,0,2.24-.13,8.29,8.29,0,0,0,2.13-.51,1.55,1.55,0,0,0,.32-.2c1-.09,2.27-.16,3.61-.16a30.36,30.36,0,0,1,5.93.54,15.1,15.1,0,0,1,5.06,1.93c8.13,12.48,14.86,19.37,21.48,23.34a35.64,35.64,0,0,0,9.93,4,67.93,67.93,0,0,0,8.15,1.37A24,24,0,0,1,156.8,72.74Zm-31-13.33v0h0ZM122,65.26a4.41,4.41,0,0,0,2.84,1.15,4.32,4.32,0,0,0,1.95-.42c-.07.13-.14.27-.22.39a4.2,4.2,0,0,1-2.47,1.81,3.77,3.77,0,0,1-.94.11A4.78,4.78,0,0,1,120,67a7.08,7.08,0,0,1-2.12-3.6h0a7.48,7.48,0,0,1-.23-1.84,6.36,6.36,0,0,1,1-3.51,4.14,4.14,0,0,1,2.47-1.8,3.79,3.79,0,0,1,.94-.12,4.23,4.23,0,0,1,1.54.31,3.22,3.22,0,0,0-.42.16,3.59,3.59,0,0,0-1.31,1.2A9.43,9.43,0,0,0,120.84,60,5,5,0,0,0,122,65.26Z"/><path d="M80.65,53.54a20.43,20.43,0,0,1,2.35.12,5.22,5.22,0,0,1,2.13.52c.64.43,1.39-.4,1-1-.24-.41-.37-.85-.59-1.27a4.8,4.8,0,0,0-1-1.13,6.52,6.52,0,0,0-3-1.6,10.14,10.14,0,0,0-6.82.91,14,14,0,0,0-4.88,4.55,18.32,18.32,0,0,0-1.71,2.94,17.84,17.84,0,0,0-1.25,3,.5.5,0,0,0,.83.49c1.46-1.13,2.7-2.57,4.11-3.78a19,19,0,0,1,4.49-2.79A10.07,10.07,0,0,1,80.65,53.54Z"/><path d="M124,47a7.84,7.84,0,0,0-4.47-1.74,6.35,6.35,0,0,0-4.41,1.91,4.82,4.82,0,0,0-1.34,2.25,4.5,4.5,0,0,0,0,1.33c0,.32,0,.64,0,1a.62.62,0,0,0,.61.61,1.73,1.73,0,0,0,.83-.23c.12-.07.24-.14.35-.22s.3-.22.12-.1a3.92,3.92,0,0,0,1.08-.81,6.6,6.6,0,0,0,.5-.68l.07-.11a4.53,4.53,0,0,1,.49-.49l.26-.16.3-.17.08,0,.1,0,.33-.1c.31-.09.62-.19.93-.26l.84-.2.23,0,.37,0a6.25,6.25,0,0,1,1.83.16,24.62,24.62,0,0,1,3.85,1.73c.16.07.36-.08.25-.25A12.14,12.14,0,0,0,124,47Z"/><path d="M100.91,103.61c-.5,3,.86,5.37,4.17,4.18,1.5-.53,1.85-1.87,3.08-2.59s2.39-.15,3.63-.67c3.44-1.43,2.64-5.35,1.95-8C108.27,90.4,101.8,98.24,100.91,103.61Z"/><path d="M127,93.64c-.69,2.69-1.5,6.61,1.94,8,1.25.52,2.36-.07,3.63.67s1.59,2.06,3.08,2.59c3.31,1.19,4.67-1.2,4.18-4.18C139,95.39,132.48,87.55,127,93.64Z"/><path d="M89.05,63.53a7.62,7.62,0,0,0-1.18-2.1,4.41,4.41,0,0,0-1.51-1.13c-.12-.12-.23-.26-.35-.37a7.87,7.87,0,0,0-5.15-2,6.82,6.82,0,0,0-1.67.21,7.16,7.16,0,0,0-4.24,3,9.3,9.3,0,0,0-1.5,5.17,10.4,10.4,0,0,0,.32,2.57,10.11,10.11,0,0,0,3,5.11A7.88,7.88,0,0,0,82,76.05a6.82,6.82,0,0,0,1.67-.21,7.23,7.23,0,0,0,4.24-3,9.11,9.11,0,0,0,1.43-4.2A5.21,5.21,0,0,0,89.52,65C89.38,64.48,89.23,64,89.05,63.53ZM84.76,66h0a1.28,1.28,0,0,1-.15-.25,1.82,1.82,0,0,1-.07-.25c0-.12,0-.24,0-.37A6.74,6.74,0,0,1,84.76,66Zm-1.86,7a3.79,3.79,0,0,1-.94.12,4.85,4.85,0,0,1-3.16-1.3,7.08,7.08,0,0,1-2.12-3.6,7.42,7.42,0,0,1-.23-1.84,6.3,6.3,0,0,1,1-3.5A4.16,4.16,0,0,1,79.92,61a3.79,3.79,0,0,1,.94-.12,3.94,3.94,0,0,1,.58.06,4.3,4.3,0,0,0-.79.68,5.78,5.78,0,0,0-1.09,1.87,5.92,5.92,0,0,0-.15,3.31,6.12,6.12,0,0,0,1.48,2.88,5.1,5.1,0,0,0,2.59,1.53,5.74,5.74,0,0,0,1.75.09A4.13,4.13,0,0,1,82.9,72.93Z"/><path class="cls-1" d="M93.78,186.62c9.25,9.91,37.8,46.13,52.24,64.81,3.43,4.44,6.06,7.89,7.45,9.76,7.23,9.72-16.05,15.41-25.34,10-1.66-1-5-3-9.5-5.86-20.47-13.08-63.72-42.58-68.28-57.16"/><path class="cls-2" d="M128.88,269.84c-1.5-.86-4.55-2.73-8.57-5.28C124.21,260,133.1,251.5,145,252h0c3.1,4,5.47,7.12,6.72,8.81C158.25,269.56,137.26,274.69,128.88,269.84Z"/><path class="cls-1" d="M75.24,204.37c-2.89.09-9-3-15.74-7.49-11.8-7.9-25.69-20.31-28.4-28.45C26.83,155.61,55.66,128,55.66,128c12.76-12.79,29.71,2.54,25.37,8.72-4.85,6.92-20.66,27.55-20.66,27.55a165.67,165.67,0,0,1,16.09,14.64,61.23,61.23,0,0,1,5.16,6.22C89.88,196.87,83.17,204.14,75.24,204.37Z"/><path class="cls-2" d="M75,203c-2.59.08-8-2.65-14.08-6.7C63.05,191.72,68,183.24,76,180.24a53.9,53.9,0,0,1,4.62,5.56C88.05,196.32,82,202.83,75,203Z"/></g></g></svg>