<?xml version="1.0" encoding="UTF-8"?>
<svg id="Layer_1" data-name="Layer 1" xmlns="http://www.w3.org/2000/svg" viewBox="0 0 183.2 274.9">
  <defs>
    <style>
      .cls-1, .cls-2 {
        stroke: #000;
        stroke-linecap: round;
        stroke-linejoin: round;
        stroke-width: 3px;
      }

      .cls-1, .cls-3 {
        fill: #3f4040;
      }

      .cls-4 {
        fill: #dcdcdc;
      }

      .cls-4, .cls-5, .cls-6, .cls-3, .cls-7, .cls-8 {
        stroke-width: 0px;
      }

      .cls-2, .cls-5 {
        fill: #747575;
      }

      .cls-6 {
        fill: #000;
      }

      .cls-7 {
        fill: #fec013;
      }

      .cls-8 {
        fill: #fff;
      }
    </style>
  </defs>
  <g id="Layer_2" data-name="Layer 2">
    <g id="Layer_1-2" data-name="Layer 1-2">
      <path class="cls-2" d="M106.28,186.62c9.25,9.91,37.8,46.13,52.24,64.81,3.43,4.44,6.06,7.89,7.45,9.76,7.23,9.72-16.05,15.41-25.34,10-1.66-1-5-3-9.5-5.86-20.47-13.08-63.72-42.58-68.28-57.16"/>
      <path class="cls-3" d="M141.38,269.84c-1.5-.86-4.55-2.73-8.57-5.28,3.9-4.56,12.79-13.06,24.69-12.56h0c3.1,4,5.47,7.12,6.72,8.81,6.53,8.75-14.46,13.88-22.84,9.03Z"/>
      <path class="cls-2" d="M169.97,175.95c-2.05,1.79-8.44,3.19-16.16,3.88-12.63,1.14-28.81.4-35.23-3.63-10.33-6.49-6.08-42.29-6.08-42.29,1.57-16.23,22.16-15.26,22.69-8.47.58,7.61,1.4,31.06,1.4,31.06,5.65-.08,11.29.14,16.92.67,3.33.3,6.62.86,9.86,1.69,12.5,3.46,11.99,12.38,6.6,17.09Z"/>
      <path class="cls-3" d="M169.12,175.42c-1.87,1.64-7.71,2.92-14.77,3.55-6.02-6.01-3.44-14.63-.27-20.73,3.04.27,6.05.79,9.01,1.54,11.43,3.17,10.96,11.33,6.03,15.64Z"/>
      <path class="cls-2" d="M82.84,207.91c-10.36,11.01-45.32,2.35-54.64-5.85s21.59-2.66,34.22-9.07,27.95,6.88,20.42,14.92Z"/>
      <path class="cls-1" d="M29.03,203.66s-10.34,10.56-20.1,1.87-7.09-12.14-7.09-12.14c0,0,13.39-10.88,28.51,4.05-1.5,1.54-4.75,3.11-1.32,6.22Z"/>
      <path class="cls-2" d="M130.3,119c9.82,4.62,17.47,50.84,1.74,81.42s-72.94,31.8-72.35-6.56,12.43-53.65,18.33-61.86c8.17-11.38,27.95-24.43,52.28-13Z"/>
      <path class="cls-2" d="M117.33,209.8c-8.51,9.06-38.82,36.44-56.4,52-5.28,4.68-9.41,8.3-11.46,10.05-8.88,7.56-15.83-14.44-11.25-23.71,1-2,3.35-6.48,6.62-12.36,11.92-21.42,35.88-61.3,49-66.38,26.91-10.4,34.55,28.6,23.49,40.4Z"/>
      <path class="cls-3" d="M59.65,261.08c-4.72,4.18-8.41,7.42-10.24,9-7.94,6.76-14.15-12.91-10.06-21.19.89-1.79,3-5.79,5.92-11.05,2.42,7.44,8.42,23.69,14.38,23.24Z"/>
      <path class="cls-7" d="M122.89,136.37c-1.43-.64-2.95-1.09-4.5-1.32,0,.07,0,.13.07.21.19.59.28,1.2.24,1.82-.05.63-.22,1.25-.51,1.81-.3.55-.73,1.02-1.25,1.37-.11.07-.22.14-.34.2h.52c1.9-.13,3.8-.22,5.71-.32,1.12-.01,2.24-.17,3.32-.46.54-.17,1.06-.36,1.59-.54-1.67-.83-3.18-2.01-4.85-2.77Z"/>
      <path class="cls-7" d="M111.04,123.09c-1.01-.07-2.01-.22-3-.46-.54-.14-1.05-.35-1.53-.63-.29-.17-.54-.4-.74-.66-.19.16-.42.27-.66.33l-.9.17c-.67,3.29-1.04,6.64-1.13,10,0,1.69.11,3.38.27,5.06.03-.05.06-.1.09-.14.89-1.09,1.94-2.02,3.13-2.76,2.54-1.6,5.47-2.49,8.48-2.57,3.1-.12,6.18.49,9,1.76.92.39,1.81.86,2.65,1.39-.38-1.12-.78-2.22-1.26-3.3-.65-1.44-1.41-2.84-2.27-4.17-.87-1.36-2-2.47-2.9-3.8-.06-.09-.11-.18-.15-.28-1.89.11-3.68.17-5.3.18-1.32.01-2.65-.03-3.78-.12Z"/>
      <path class="cls-7" d="M113.35,140.42c-.26-.14-.5-.32-.72-.52-.09-.08-.18-.17-.25-.27-.34-.4-.62-.85-.82-1.34-.15-.32-.27-.65-.35-1-.08-.5-.13-1-.19-1.51,0-.09,0-.18,0-.27-.89.26-1.76.59-2.59,1-1.06.56-2.04,1.25-2.93,2.05-.6.5-1.17,1.02-1.71,1.58.05.18.14.31.12.34.39.06.79.07,1.19.05,2.85.13,5.72.15,8.59.06l-.34-.17Z"/>
      <path class="cls-4" d="M62.5,38.46l.24-.28c-2.41-.98-4.75-2.13-7-3.43l.48.33s-9.83,5.92-13.47,12.42c1.94-5.66,5.3-10.72,9.75-14.72-2.19-1.43-4.26-3.03-6.2-4.78-2.17,1.47-6.47,4.67-8.39,8.1,1.31-3.8,3.51-7.23,6.41-10-.84-.87-1.64-1.79-2.39-2.75-1.86-2.38-3.32-5.05-4.31-7.9-2.07,4.9-3.17,10.15-3.24,15.47-.14,5.55,1.44,11.01,4.53,15.62,2.83,4.02,7.1,6.79,11.92,7.74,2.44-3,4.59-5.91,6.46-8.56,2.04-2.94,3.75-5.45,5.21-7.26Z"/>
      <path class="cls-3" d="M153.56,83.25c-.09-.19-.2-.36-.34-.51l-1.38-.35-.6-.07c-1.11-.11-2.6-.16-4.33-.16-3.44,0-7.85.21-12.51.6.2,1.31,1,8-1,18.66,0-6.73-3.22-15.55-4.23-18.16-4.35.47-8.68,1.08-12.42,1.79-2.62.48-5.21,1.14-7.73,2-.84.28-1.65.65-2.41,1.12-.15.1-.28.22-.4.36-.56,1.07-.9,2.25-1,3.45-.28,1.99-.4,3.99-.38,6,.03,5.7.64,11.38,1.81,16.95.27,1.24.63,2.46,1.09,3.65.13.35.29.68.49,1h0c.09.06.19.1.29.14.46.15.92.26,1.4.33,1.66.22,3.33.32,5,.3,10.21-.23,20.37-1.51,30.31-3.82,2.54-.58,5.02-1.38,7.42-2.39.77-.31,1.48-.75,2.12-1.28.11-.09.2-.21.27-.33.45-1.34.74-2.74.85-4.15.21-2.13.31-4.26.3-6.4.05-5.25-.46-10.48-1.53-15.62-.23-1.08-.6-2.12-1.09-3.11ZM124.29,104.53c-1.24.52-2.36-.07-3.63.67s-1.58,2.06-3.08,2.59c-3.31,1.19-4.67-1.2-4.17-4.18.89-5.37,7.36-13.21,12.83-7.12.69,2.69,1.49,6.61-1.95,8.04ZM148.16,104.94c-1.49-.53-1.85-1.87-3.08-2.59s-2.38-.15-3.63-.67c-3.44-1.43-2.63-5.35-1.94-8,5.47-6.09,11.94,1.75,12.83,7.12.49,2.94-.84,5.33-4.18,4.14h0Z"/>
      <path class="cls-4" d="M160.67,37.1c-4.95-4.53-14.51-7-16.36-7.48-.81,1.12-1.43,1.88-1.7,2.21,5.45,8.32,10.19,14,14.57,17.83,2.22-2.49,3.92-5.39,5-8.55,1.2-3.54,1.79-7.26,1.75-11-.01-4.43-.64-8.85-1.85-13.11-.98-3.49-2.39-6.85-4.2-10-.72-1.31-1.66-2.5-2.76-3.52-.18-.19-.39-.35-.62-.48-.04.08-.08.16-.12.24-.15,4.72-1.17,9.36-3,13.71l.12-.16c4.02,1.71,7.53,4.44,10.18,7.92-3.29-3-9.39-4.78-11.37-5.29-.62,1.36-1.28,2.63-1.93,3.81s-1.16,2-1.72,2.9c5.54,2.39,10.36,6.17,14.01,10.97Z"/>
      <path class="cls-8" d="M95.98,71.21c-1-.24-1.9-.77-2.59-1.53-.74-.81-1.25-1.8-1.48-2.88-.27-1.1-.21-2.24.15-3.31.24-.69.61-1.32,1.09-1.87.23-.26.5-.49.79-.68-.19-.03-.39-.05-.58-.06-.32,0-.63.04-.94.12-1.02.27-1.91.91-2.47,1.81-.67,1.04-1.02,2.26-1,3.5,0,.62.08,1.24.23,1.84.33,1.39,1.07,2.64,2.12,3.6.87.81,2.01,1.27,3.2,1.3.32,0,.63-.04.94-.12.95-.25,1.77-.83,2.33-1.63-.6.06-1.2.03-1.79-.09Z"/>
      <path class="cls-5" d="M171.27,60.49c-3.49-.83-6.84-2.17-9.93-4-6.62-4-13.35-10.86-21.48-23.34-1.56-.94-3.27-1.6-5.06-1.93-1.95-.37-3.94-.55-5.93-.54-1.34,0-2.58.07-3.61.16-.1.08-.21.15-.32.2-.68.26-1.4.43-2.13.51-.74.09-1.49.13-2.24.13-.51,0-1,0-1.4-.06-.47-.04-.89-.29-1.14-.69-.25-.4-.3-.89-.14-1.33.12-.29.27-.56.45-.82.16-.23.34-.46.51-.7.31-.4.6-.81.82-1.16l-.29.05c-.37.08-.77.19-1.15.31-.78.24-1.5.53-1.85.67-1.4.57-2.69,1.37-3.82,2.38h0l-.21.24c-.17.19-.38.43-.63.67-.2.19-.43.36-.67.49-.26.15-.55.23-.85.23h-.15c-.31-.03-.61-.11-.89-.23-.29-.13-.55-.31-.76-.55-.35-.4-.57-.89-.65-1.41-.02-.26-.02-.52,0-.78v-1.31c-.08.04-.16.09-.23.14-.25.19-.46.43-.62.7-.4.62-.62,1.34-.65,2.08-.02.24.03.47.14.68.5.66.37,1.6-.29,2.1-.66.5-1.6.37-2.1-.28-1.47-1.37-3.29-2.29-5.26-2.66-2.35-.5-4.74-.74-7.14-.7h-1.71c1.1.76,2.2,1.55,3.28,2.45h0c.66.5.79,1.44.29,2.1-.5.66-1.44.79-2.1.29-.03-.03-.07-.05-.1-.08l-.07-.06c-.18.09-.38.14-.58.15h-.37l-1.06.06c-.91.06-2.2.15-3.71.28-3,.25-7,.66-10.52,1.24-2.11.32-4.2.79-6.24,1.41-.74.22-1.44.53-2.1.92-.67.52-1.26,1.12-1.77,1.8-.76.94-1.65,2.16-2.65,3.57-2,2.83-4.46,6.43-7.41,10.18-5.58,7.14-12.91,14.8-22.46,18.85,2.36,4.33,5.69,8.05,9.71,10.9,3.49,2.36,7.61,3.6,11.82,3.57,3.67-.06,7.3-.8,10.7-2.19.79-.28,1.65.13,1.93.92.08.22.1.46.07.7h0v.31c0,.11-.06.56-.09,1-.07.86-.15,2.1-.15,3.6-.01,3.25.35,6.5,1.08,9.67.83,3.74,2.44,7.25,4.74,10.31,1.71,2.17,3.84,3.98,6.27,5.31,4.33,2.21,9.14,3.28,14,3.12,4.07-.04,8.13-.51,12.1-1.39h0c-.14-.39-.27-.81-.4-1.26-.44-1.59-.8-3.2-1.07-4.83-1.57-.45-3.12-1-4.62-1.64-3.81-1.55-7.33-3.73-10.41-6.46-2.16-1.93-3.95-4.24-5.3-6.8-.45.5-.87,1-1.25,1.51-.51.65-1.45.77-2.1.26-.65-.51-.77-1.45-.27-2.1.66-.85,1.36-1.65,2.12-2.41.86-.89,1.88-1.61,3-2.14.81-.37,1.69-.57,2.58-.58h.19c.83.03,1.48.72,1.45,1.55-.03.83-.72,1.48-1.55,1.45h-.09c-.47,0-.93.11-1.35.31l-.35.2c1.17,2.42,2.78,4.59,4.76,6.41,1.89,1.74,4,3.22,6.27,4.43,2.07,1.11,4.23,2.04,6.47,2.76-.52-3.8-.79-7.62-.81-11.45-.02-2.15.12-4.29.41-6.42.17-1.65.69-3.25,1.53-4.69.32-.44.71-.82,1.16-1.12.48-.33.98-.61,1.51-.85,1.31-.58,2.67-1.05,4.06-1.41,3.76-.98,7.58-1.73,11.43-2.25,6.74-1,14.23-1.65,20.34-1.9-2.28-.87-4.5-1.89-6.65-3.05-2.58-1.32-4.91-3.07-6.9-5.17-1.03-1.11-1.82-2.42-2.31-3.85-.25-.8.19-1.64.98-1.9,0,0,.01,0,.02,0,.18-.06.38-.08.57-.07-.14-.35-.26-.71-.36-1.08h0c-.21-.84-.32-1.7-.32-2.57-.02-1.83.5-3.63,1.5-5.17.99-1.49,2.5-2.56,4.24-3,.55-.14,1.11-.21,1.67-.21,1.9.02,3.73.73,5.15,2,1.49,1.37,2.54,3.15,3,5.12h0c.21.84.32,1.7.32,2.57.02,1.83-.5,3.63-1.5,5.17-1,1.49-2.51,2.56-4.24,3-.55.14-1.11.2-1.67.2-1.14,0-2.26-.28-3.28-.79.43.36.88.72,1.37,1.07,2.56,1.75,5.31,3.21,8.19,4.36,3.41,1.39,6.9,2.56,10.46,3.5l.79.13c.34.07.68.18,1,.31-.53-1.84-1.11-3.58-1.71-5.15-1.19-3.2-2.61-6.3-4.26-9.28h0c-.46-.69-.28-1.62.41-2.08.69-.46,1.62-.28,2.08.41.03.05.06.1.09.16,1.66,2.97,3.1,6.06,4.3,9.24.24.65.49,1.32.74,2,.25-.09.51-.11.77-.06h.11l.49.06c.44,0,1.08.09,1.89.09,3.54,0,7.03-.86,10.16-2.52,4.44-2.46,7.98-6.27,10.12-10.88-2.75-.29-5.47-.74-8.16-1.36ZM80.27,61.09c-.23.15-.54.09-.69-.14-.07-.1-.1-.23-.08-.35.32-1.04.74-2.04,1.25-3,.48-1.03,1.05-2.02,1.71-2.94,1.24-1.89,2.91-3.45,4.88-4.55,2.1-1.09,4.51-1.41,6.82-.91,1.12.26,2.16.81,3,1.6.39.32.73.7,1,1.13.22.42.35.86.59,1.27.36.62-.39,1.45-1,1-.7-.35-1.47-.53-2.25-.54-.78-.09-1.57-.13-2.35-.12-1.47.02-2.92.36-4.24,1-1.62.72-3.13,1.66-4.49,2.79-1.41,1.19-2.65,2.67-4.11,3.76h-.04ZM101.76,68.59c-.12,1.5-.61,2.94-1.43,4.2-.99,1.49-2.5,2.56-4.24,3-.55.14-1.11.21-1.67.21-1.89-.03-3.7-.74-5.11-2-1.49-1.37-2.53-3.15-3-5.11-.21-.84-.32-1.7-.32-2.57-.02-1.84.51-3.64,1.51-5.18.99-1.5,2.5-2.57,4.24-3,.55-.14,1.11-.21,1.67-.21,1.9.02,3.73.73,5.15,2,.12.11.23.25.35.37.58.26,1.09.65,1.51,1.13.5.63.9,1.34,1.18,2.1.18.47.33,1,.47,1.43.35,1.2.25,2.49-.27,3.63h-.04ZM139.43,50.5c-1.23-.69-2.52-1.26-3.85-1.73-.6-.14-1.22-.2-1.83-.16h-.6l-.84.2c-.31.07-.62.17-.93.26l-.33.1h-.18l-.3.17-.26.16c-.18.15-.34.31-.49.49l-.07.11c-.15.24-.32.46-.5.68-.31.33-.68.6-1.08.81.18-.12,0,.06-.12.1s-.23.15-.35.22c-.25.15-.54.22-.83.23-.33,0-.6-.28-.61-.61v-1c-.07-.44-.07-.89,0-1.33.23-.86.69-1.64,1.34-2.25,1.16-1.19,2.75-1.88,4.41-1.91,1.67.16,3.24.84,4.49,1.96,1.27.88,2.37,2,3.22,3.29.07.13-.13.28-.29.21Z"/>
      <path class="cls-8" d="M134.4,57.81c.33-.5.78-.92,1.31-1.2.14-.06.28-.12.42-.16-.49-.2-1.01-.3-1.54-.31-.32,0-.63.04-.94.12-1.02.26-1.91.91-2.47,1.8-.67,1.05-1.02,2.27-1,3.51,0,.62.08,1.24.23,1.84h0c.32,1.38,1.05,2.63,2.09,3.59.86.8,1.98,1.26,3.16,1.29.32,0,.63-.03.94-.11,1.02-.27,1.9-.92,2.47-1.81.08-.12.15-.26.22-.39-.61.29-1.28.43-1.95.42-1.05-.03-2.06-.43-2.84-1.14-1.38-1.38-1.83-3.43-1.16-5.26.26-.77.61-1.51,1.06-2.19Z"/>
      <path class="cls-5" d="M97.11,65.7c.04.09.09.17.15.25h0c-.06-.3-.14-.59-.24-.88v.37c.02.09.05.18.09.26Z"/>
      <path class="cls-6" d="M181.83,59.12c-3.31-.29-6.6-.81-9.84-1.55-4.54-1.08-8.8-3.13-12.48-6,2.46-2.75,4.35-5.97,5.55-9.46,1.31-3.86,1.96-7.92,1.92-12-.07-7-1.54-13.91-4.32-20.34-1-2.4-2.3-4.68-3.85-6.77-.57-.77-1.25-1.47-2-2.07-.34-.26-.72-.48-1.11-.65-.42-.19-.88-.28-1.34-.28-.71,0-1.39.27-1.9.76-.47.48-.82,1.08-1,1.73-.06.15-.08.31-.08.47,0,7-2.77,13.79-5.58,18.84-1.17,2.07-2.46,4.08-3.86,6-.53.72-1,1.28-1.26,1.66l-.33.4c-1.56-.77-3.21-1.33-4.92-1.66-2.15-.41-4.33-.61-6.52-.6-2.16,0-4.31.16-6.44.47.1-.19.2-.38.29-.6.17-.39.27-.82.27-1.25,0-.34-.07-.68-.21-1-.15-.33-.38-.63-.66-.86h0c-.29-.24-.63-.4-1-.48-.29-.07-.59-.1-.89-.1-.51,0-1.01.07-1.5.18-1.19.28-2.35.66-3.48,1.12-1.66.68-3.2,1.62-4.56,2.8v-.37c0-.28-.02-.56-.06-.83-.04-.25-.12-.5-.23-.73-.2-.43-.53-.78-.94-1.02-.43-.24-.91-.36-1.4-.35h-.41c-.73.08-1.42.36-2,.81-.79.62-1.42,1.43-1.82,2.35-.18.41-.33.83-.44,1.26-1.27-.66-2.61-1.16-4-1.48-2.57-.56-5.2-.82-7.83-.78-2.3,0-4.49.15-6.29.28-.63.04-1.16.48-1.33,1.09-.17.61.06,1.26.58,1.63,1,.72,2,1.39,3,2.07-2,.14-4.77.37-7.75.71-2.82.33-5.8.76-8.42,1.31-1.22.27-2.43.6-3.61,1-.96.28-1.88.67-2.75,1.17-.15-.16-.34-.28-.55-.36h0c-4.33-1.72-8.44-3.97-12.22-6.69-3.08-2.18-5.82-4.79-8.13-7.77-2.39-3.06-3.95-6.68-4.52-10.52-.1-.82-.86-1.4-1.68-1.3-.49.06-.92.36-1.14.8-3.42,6.38-5.26,13.48-5.36,20.72-.15,6.17,1.62,12.23,5.07,17.34,2.94,4.18,7.23,7.2,12.15,8.57-.89,1-1.8,2-2.76,3-4.59,4.62-10,8.71-16.22,11-.41.15-.73.47-.89.88-.15.41-.12.86.09,1.24,3.38,6.21,7.27,10.6,11.52,13.43,3.99,2.68,8.69,4.1,13.49,4.07,3.24-.03,6.46-.57,9.53-1.6-.05.82-.09,1.81-.09,2.94,0,5,.74,12.74,4.78,19.4,2.15,3.59,5.22,6.53,8.89,8.54,4.76,2.45,10.07,3.65,15.42,3.49,3.02-.02,6.02-.28,9-.77-1.21,3.17-1.89,6.53-2,9.92-.08,2.25.04,4.49.34,6.72.25,1.91.51,4,2.47,5,1.09.38,2.24.52,3.39.41,1.12,0,2.24,0,3.36-.07,2.31-.09,4.61-.36,6.9-.67,2.29-.3,4.55-.77,6.77-1.42,1.14-.41,2.31-.75,3.49-1,1.18-.18,2.37-.34,3.55-.51.45-.13.77-.53.78-1,.05-1.7-.22-3.4-.8-5-.45-1.59-.99-3.15-1.63-4.68-.63-1.52-1.3-3-2-4.48-.49-.93-1-1.88-1.48-2.78,5.13-.46,10.68-1.23,15.75-2.19,3.8-.72,7.54-1.72,11.2-2.97,1.34-.45,2.64-1.03,3.87-1.73.5-.28.97-.62,1.4-1,.43-.38.77-.85,1-1.37.58-1.61.93-3.29,1.06-5,.23-2.23.33-4.48.32-6.72,0-1,0-1.92-.05-2.89.23-1.68.34-3.37.34-5.06-.08-5.35-.95-10.67-2.58-15.77.77.08,1.54.12,2.31.12,4.03,0,8-.99,11.57-2.87,4.5-2.39,9.11-6.72,12.34-14.18.19-.44.16-.94-.08-1.35-.24-.43-.68-.71-1.17-.75ZM150.31,19.44c2,.51,8.08,2.28,11.37,5.29-2.65-3.48-6.16-6.21-10.18-7.92l-.12.16c1.83-4.35,2.85-8.99,3-13.71.04-.09.08-.18.12-.26.24.1.47.25.67.42,1.09,1.04,2.01,2.25,2.71,3.58,1.81,3.15,3.22,6.51,4.2,10,1.23,4.25,1.86,8.64,1.9,13.06.04,3.74-.55,7.46-1.75,11-1.08,3.16-2.78,6.06-5,8.55-4.38-3.86-9.12-9.51-14.57-17.83.27-.33.89-1.09,1.7-2.21,1.85.45,11.41,2.95,16.36,7.48-3.64-4.81-8.46-8.6-14-11,.56-.89,1.14-1.85,1.72-2.9s1.25-2.35,1.87-3.71ZM38.91,46.48c-3.09-4.61-4.67-10.07-4.53-15.62.07-5.32,1.17-10.57,3.24-15.47.99,2.85,2.45,5.52,4.31,7.9.75.94,1.55,1.85,2.39,2.71-2.9,2.77-5.1,6.2-6.41,10,1.92-3.43,6.22-6.63,8.39-8.1,1.93,1.79,4.01,3.42,6.2,4.88-4.45,4-7.81,9.06-9.75,14.72,3.64-6.5,13.46-12.42,13.46-12.42l-.48-.33c2.25,1.3,4.59,2.45,7,3.43l-.24.28c-1.47,1.81-3.18,4.32-5.22,7.2-1.87,2.65-4,5.6-6.46,8.56-4.81-.95-9.08-3.73-11.9-7.74ZM105.13,140.53c-.4.02-.8,0-1.19-.05,0,0-.07-.16-.12-.34.53-.56,1.09-1.08,1.68-1.58.91-.81,1.92-1.5,3-2.05.83-.41,1.7-.74,2.59-1,0,.09,0,.18,0,.27.06.5.11,1,.19,1.51.08.35.2.68.35,1,.2.49.48.94.82,1.34.07.1.16.19.25.27.22.2.46.38.72.52l.37.17c-2.94.09-5.81.07-8.66-.06ZM122.83,140.11c-1.91.1-3.81.19-5.71.32h-.52c.12-.06.23-.13.34-.2.52-.35.95-.82,1.25-1.37.29-.56.46-1.18.51-1.81.04-.62-.05-1.23-.24-1.82,0-.08,0-.14-.07-.21,1.55.23,3.07.68,4.5,1.32,1.67.76,3.18,1.94,4.85,2.74-.53.18-1,.37-1.59.54-1.08.3-2.2.47-3.32.49ZM120.3,123.33c.9,1.33,2,2.44,2.9,3.8.87,1.33,1.64,2.72,2.3,4.17.48,1.08.88,2.18,1.26,3.3-.84-.53-1.73-1-2.65-1.39-2.82-1.27-5.9-1.88-9-1.76-3.02.06-5.98.94-8.54,2.55-1.17.75-2.2,1.69-3.07,2.77-.03.04-.06.09-.09.14-.16-1.68-.27-3.37-.27-5.06.09-3.36.46-6.71,1.13-10l.9-.17c.24-.06.47-.17.66-.33.2.26.45.49.74.66.48.28.99.49,1.53.63.99.24,1.99.39,3,.46,1.13.09,2.41.13,3.81.14,1.62,0,3.41-.07,5.3-.18.02.09.05.18.09.27ZM155.82,108.26c-.11,1.41-.4,2.81-.85,4.15-.07.12-.16.24-.27.33-.64.53-1.35.97-2.12,1.28-2.4,1.01-4.88,1.81-7.42,2.39-9.94,2.31-20.1,3.59-30.31,3.82-1.67.02-3.34-.08-5-.3-.48-.07-.94-.18-1.4-.33-.1-.04-.2-.08-.29-.14h0c-.2-.32-.36-.65-.49-1-.46-1.19-.82-2.41-1.09-3.65-1.17-5.56-1.78-11.23-1.82-16.91-.02-2.01.1-4.01.38-6,.1-1.2.44-2.38,1-3.45.12-.14.25-.26.4-.36.77-.46,1.59-.82,2.45-1.09,2.52-.86,5.11-1.52,7.73-2,3.74-.71,8.07-1.32,12.42-1.79,1,2.61,4.21,11.43,4.23,18.16,2-10.65,1.23-17.35,1-18.66,4.66-.39,9.07-.6,12.51-.6,1.73,0,3.22,0,4.33.16l.6.07,1.38.35c.14.15.25.32.34.51.45.96.79,1.96,1,3,1.07,5.14,1.58,10.37,1.53,15.62.03,2.15-.05,4.3-.24,6.44ZM169.3,72.74c-3.13,1.66-6.62,2.52-10.16,2.52-.81,0-1.45-.05-1.89-.09l-.49-.06h-.11c-.26-.05-.52-.03-.77.06-.25-.69-.5-1.36-.74-2-1.2-3.18-2.64-6.27-4.3-9.24-.38-.74-1.28-1.03-2.02-.65s-1.03,1.28-.65,2.02c.03.05.06.11.09.16h0c1.64,2.98,3.06,6.09,4.24,9.28.6,1.57,1.18,3.31,1.71,5.15-.32-.13-.66-.24-1-.31l-.79-.13c-3.56-.94-7.05-2.11-10.46-3.5-2.88-1.15-5.63-2.61-8.19-4.36-.49-.35-.94-.71-1.37-1.07,1.02.51,2.14.78,3.28.79.56,0,1.12-.06,1.67-.2,1.73-.44,3.24-1.51,4.24-3,1-1.54,1.52-3.34,1.5-5.17,0-.87-.11-1.73-.32-2.57h0c-.46-1.97-1.51-3.75-3-5.12-1.42-1.27-3.25-1.98-5.15-2-.56,0-1.12.07-1.67.21-1.74.44-3.25,1.51-4.24,3-1,1.54-1.52,3.34-1.5,5.17,0,.87.11,1.73.32,2.57h0c.1.37.22.73.36,1.08-.19-.01-.39.01-.57.07-.8.24-1.25,1.09-1,1.88,0,0,0,.01,0,.02.51,1.4,1.3,2.68,2.33,3.76,1.99,2.1,4.32,3.85,6.9,5.17,2.15,1.16,4.37,2.18,6.65,3.05-6.11.25-13.6.91-20.34,1.9-3.85.52-7.67,1.27-11.43,2.25-1.39.36-2.75.83-4.06,1.41-.53.24-1.03.52-1.51.85-.45.3-.84.68-1.16,1.12-.84,1.44-1.36,3.04-1.53,4.69-.29,2.13-.43,4.27-.41,6.42.02,3.83.29,7.65.81,11.45-2.24-.72-4.4-1.65-6.47-2.76-2.27-1.21-4.38-2.69-6.27-4.43-1.98-1.82-3.59-3.99-4.76-6.41l.35-.2c.42-.2.88-.31,1.35-.31h.09c.83.03,1.52-.62,1.55-1.45.03-.83-.62-1.52-1.45-1.55h-.19c-.89,0-1.77.21-2.58.58-1.12.53-2.14,1.25-3,2.14-.76.77-1.47,1.6-2.12,2.46-.52.67-.4,1.64.28,2.16s1.64.4,2.16-.28c.38-.49.8-1,1.25-1.51,1.35,2.56,3.14,4.87,5.3,6.8,3.06,2.72,6.57,4.9,10.36,6.45,1.52.64,3.08,1.19,4.67,1.63.27,1.63.63,3.24,1.07,4.83.13.45.26.87.4,1.26h0c-3.99.89-8.07,1.37-12.16,1.41-4.86.16-9.67-.91-14-3.12-2.44-1.33-4.58-3.15-6.29-5.33-2.3-3.06-3.91-6.57-4.74-10.31-.73-3.17-1.09-6.42-1.08-9.67,0-1.5.08-2.74.15-3.6,0-.43.07-.76.09-1s0-.19,0-.25v-.06h0c.11-.83-.47-1.59-1.3-1.69-.24-.03-.47,0-.7.07-3.4,1.39-7.03,2.13-10.7,2.19-4.2.03-8.31-1.21-11.79-3.56-4.02-2.85-7.35-6.57-9.71-10.9,9.55-4.05,16.88-11.71,22.46-18.8,2.95-3.75,5.4-7.35,7.41-10.18,1-1.41,1.89-2.63,2.65-3.57.51-.68,1.1-1.28,1.77-1.8.66-.39,1.36-.7,2.1-.92,2.04-.62,4.13-1.09,6.24-1.41,3.55-.58,7.55-.99,10.55-1.22,1.51-.13,2.8-.22,3.71-.28l1.06-.06h.37c.2,0,.4-.06.58-.15l.07.06c.62.55,1.56.5,2.12-.11.55-.62.5-1.56-.11-2.12-.03-.03-.06-.05-.1-.08h0c-1.08-.9-2.18-1.69-3.28-2.45h1.71c2.4-.04,4.79.2,7.14.7,1.95.36,3.76,1.25,5.23,2.59.57.6,1.52.63,2.12.06.52-.49.62-1.29.24-1.89-.11-.21-.16-.44-.14-.68.03-.74.25-1.46.65-2.08.16-.27.37-.51.62-.7.07-.05.15-.1.23-.14v1.31c-.02.26-.02.52,0,.78.08.52.3,1.01.65,1.41.21.24.47.42.76.55.28.12.58.2.89.23h.15c.3,0,.59-.08.85-.23.24-.13.47-.3.67-.49.25-.24.46-.48.63-.67l.21-.24h0c1.13-1.01,2.42-1.81,3.82-2.38.35-.14,1.07-.43,1.85-.67.38-.12.78-.23,1.15-.31l.29-.05c-.22.35-.51.76-.82,1.16-.17.24-.35.47-.51.7-.18.26-.33.53-.45.82-.16.44-.11.93.14,1.33.25.4.67.65,1.14.69.41,0,.89.06,1.4.06.75,0,1.5-.04,2.24-.13.73-.08,1.45-.25,2.13-.51.11-.05.22-.12.32-.2,1-.09,2.27-.16,3.61-.16,1.99-.01,3.98.17,5.93.54,1.79.33,3.5.99,5.06,1.93,8.13,12.48,14.86,19.37,21.48,23.34,3.09,1.83,6.44,3.17,9.93,4,2.69.62,5.41,1.08,8.15,1.37-2.13,4.61-5.66,8.42-10.09,10.89ZM138.3,59.41h0ZM134.5,65.26c.78.71,1.79,1.12,2.84,1.15.67.01,1.34-.13,1.95-.42-.07.13-.14.27-.22.39-.57.89-1.45,1.54-2.47,1.81-.31.08-.62.11-.94.11-1.18-.03-2.3-.49-3.16-1.3-1.05-.96-1.79-2.21-2.12-3.6h0c-.15-.6-.23-1.22-.23-1.84-.02-1.24.33-2.46,1-3.51.56-.89,1.45-1.54,2.47-1.8.31-.08.62-.12.94-.12.53,0,1.05.11,1.54.31-.14.04-.28.1-.42.16-.53.28-.98.7-1.31,1.2-.44.69-.78,1.43-1.03,2.2-.67,1.83-.22,3.88,1.16,5.26Z"/>
      <path class="cls-6" d="M93.15,53.54c.78,0,1.57.03,2.35.12.74.02,1.46.2,2.13.52.64.43,1.39-.4,1-1-.24-.41-.37-.85-.59-1.27-.27-.43-.61-.81-1-1.13-.84-.79-1.88-1.34-3-1.6-2.31-.5-4.72-.18-6.82.91-1.97,1.1-3.64,2.66-4.88,4.55-.66.92-1.23,1.91-1.71,2.94-.51.96-.93,1.96-1.25,3-.07.27.09.54.35.61.17.05.35,0,.48-.12,1.46-1.13,2.7-2.57,4.11-3.78,1.36-1.13,2.87-2.07,4.49-2.79,1.36-.64,2.84-.97,4.34-.96Z"/>
      <path class="cls-6" d="M136.5,47c-1.27-1.03-2.83-1.64-4.47-1.74-1.66.03-3.25.72-4.41,1.91-.65.61-1.11,1.39-1.34,2.25-.07.44-.07.89,0,1.33v1c0,.33.28.6.61.61.29,0,.58-.08.83-.23.12-.07.24-.14.35-.22s.3-.22.12-.1c.4-.21.77-.48,1.08-.81.18-.22.35-.44.5-.68l.07-.11c.15-.18.31-.34.49-.49l.26-.16.3-.17h.18l.33-.1c.31-.09.62-.19.93-.26l.84-.2h.6c.61-.04,1.23.02,1.83.16,1.33.47,2.62,1.04,3.85,1.73.16.07.36-.08.25-.25-.83-1.35-1.92-2.53-3.2-3.47Z"/>
      <path class="cls-6" d="M113.41,103.61c-.5,3,.86,5.37,4.17,4.18,1.5-.53,1.85-1.87,3.08-2.59s2.39-.15,3.63-.67c3.44-1.43,2.64-5.35,1.95-8-5.47-6.13-11.94,1.71-12.83,7.08Z"/>
      <path class="cls-6" d="M139.5,93.64c-.69,2.69-1.5,6.61,1.94,8,1.25.52,2.36-.07,3.63.67s1.59,2.06,3.08,2.59c3.31,1.19,4.67-1.2,4.18-4.18-.83-5.33-7.35-13.17-12.83-7.08Z"/>
      <path class="cls-6" d="M101.55,63.53c-.28-.76-.68-1.47-1.18-2.1-.42-.48-.93-.87-1.51-1.13-.12-.12-.23-.26-.35-.37-1.42-1.27-3.25-1.98-5.15-2-.56,0-1.12.07-1.67.21-1.74.43-3.25,1.5-4.24,3-1,1.54-1.52,3.34-1.5,5.17,0,.87.11,1.73.32,2.57.47,1.96,1.51,3.74,3,5.11,1.43,1.31,3.29,2.04,5.23,2.06.56,0,1.12-.07,1.67-.21,1.74-.44,3.25-1.51,4.24-3,.82-1.26,1.31-2.7,1.43-4.2.5-1.15.56-2.44.18-3.64-.14-.52-.29-1-.47-1.47ZM97.26,66h0c-.06-.08-.11-.16-.15-.25-.03-.08-.05-.17-.07-.25v-.37c.09.28.17.58.22.87ZM95.4,73c-.31.08-.62.12-.94.12-1.18-.04-2.3-.5-3.16-1.3-1.05-.96-1.79-2.21-2.12-3.6-.15-.6-.23-1.22-.23-1.84-.02-1.24.33-2.46,1-3.5.55-.92,1.43-1.6,2.47-1.88.31-.08.62-.12.94-.12.19,0,.39.03.58.06-.29.19-.56.42-.79.68-.48.55-.85,1.18-1.09,1.87-.36,1.07-.42,2.21-.15,3.31.23,1.08.74,2.07,1.48,2.88.69.76,1.59,1.29,2.59,1.53.58.12,1.17.15,1.75.09-.56.8-1.38,1.38-2.33,1.63v.07Z"/>
      <path class="cls-2" d="M153.52,162.34c-1.17,2.64-6.61,6.81-13.58,10.93-12.24,7.2-29.45,14.33-37.96,13.24-13.4-1.72-25.76-39.67-25.76-39.67-5.98-17.05,15.18-25.66,18.87-19.07,4.13,7.37,15.85,30.57,15.85,30.57,6.54-3.15,13.28-5.87,20.17-8.14,2.57-.82,5.19-1.47,7.84-1.95,14.16-2.35,17.8,6.86,14.56,14.1Z"/>
      <path class="cls-3" d="M152.18,161.97c-1.05,2.37-5.86,6.06-12.15,9.78-3.2-3.91-8.69-12.05-7.92-20.56,2.3-.74,4.64-1.32,7.01-1.75,12.7-2.13,15.94,6.15,13.06,12.53Z"/>
    </g>
  </g>
</svg>