<?xml version="1.0" encoding="UTF-8"?>
<svg id="Layer_1" data-name="Layer 1" xmlns="http://www.w3.org/2000/svg" viewBox="0 0 140.27 277.94">
  <defs>
    <style>
      .cls-1, .cls-2, .cls-3, .cls-4 {
        stroke-width: 0px;
      }

      .cls-1, .cls-5 {
        fill: #282828;
      }

      .cls-6, .cls-2 {
        fill: #f4b146;
      }

      .cls-6, .cls-5 {
        stroke: #000;
        stroke-linecap: round;
        stroke-linejoin: round;
        stroke-width: 3px;
      }

      .cls-3 {
        fill: #000;
      }

      .cls-4 {
        fill: #fff;
      }
    </style>
  </defs>
  <g id="Layer_2" data-name="Layer 2">
    <g id="Layer_1-2" data-name="Layer 1-2">
      <path class="cls-5" d="M23.63,223.31c2.43,4.07,53.3,52.89,79.72,37.36,16-12.38-14.77-48.19-23-54.8-6-4.82-11.43-9.5-19-11.66"/>
      <path class="cls-6" d="M95.72,263.69s-10.67,5.45-2.57,11.3,38.56-7.71,42.32-11.3-2-26.56-6.89-26.49-17.31,12.38-21.27,17.92c-3.96,5.54-11.59,8.57-11.59,8.57Z"/>
      <path class="cls-5" d="M78.44,135.37s-3.4,26.52.31,38.42c3.41,11.01,49.14,28.36,58.43,16.36,9.29-11.99-24.9-26.7-29.71-29.11s-.86-23.47-2.01-30.89c-1.46-9.45-22.83-11.42-27.02,5.22Z"/>
      <path class="cls-5" d="M107.85,135.39c7.09,20.52,20.34,72.92-16.51,101.75-33,20-72.72-5.1-77-34.64s16.66-65.93,24.4-72.07c7.19-5.72,22.26-23.49,57.37-7.82,5.51,2.45,9.76,7.08,11.74,12.78Z"/>
      <path class="cls-5" d="M87,182.75c-4.71.43-70.74,25.16-68.18,55.7,4.18,19.76,49.88,9.55,59.4,4.93,14.51-7,26.87-20.34,30.4-36.6,3.68-16.98-13.23-24.78-21.62-24.03Z"/>
      <path class="cls-6" d="M19.35,230.26s-.3-12-9.08-7.21-9.73,38.1-8.13,43,24.8,9.74,26.86,5.26-3.66-21-6.95-26.93-2.7-14.12-2.7-14.12Z"/>
      <path class="cls-4" d="M98.91,228.36h0c-15.9,12.7-32.84,3.38-35.57-16.77-2.78-20.45,19.36-50.59,4.15-82.27,0,0,12.68-5.91,19.65-9.62,2.36.81,4.8,1.77,7.36,2.91,5.51,2.45,9.77,7.08,11.75,12.78,6.41,18.61,17.87,63.27-7.34,92.97Z"/>
      <path class="cls-2" d="M91.12,91.11c-.33-.06-.63-.23-.86-.47-.41-.21-.83-.38-1.26-.53-1.76-.57-3.6-.85-5.45-.82-1.79-.01-3.58.22-5.31.69-1.43.36-2.79.97-4,1.82-.32.25-.63.51-.93.78-.45.4,0,0,0,0-.9.81-1.68,1.75-2.31,2.78-.77,1.22-1.2,2.63-1.24,4.08.02,1.61.64,3.15,1.75,4.31h0c.78.9,1.7,1.66,2.73,2.25.98.54,2.03.96,3.12,1.24,2.3.66,5.15,1.08,8.65,2.25,2.36.74,4.62,1.74,6.75,3h.09c.3-.63.65-1.42,1-2.34,1.12-2.84,1.73-5.86,1.8-8.91.09-3.15-.93-6.24-2.88-8.72-.47-.56-1.03-1.03-1.65-1.41Z"/>
      <path class="cls-4" d="M93.93,76c0-7.52,3.5-13.61,7.82-13.61,3.16,0,5.88,3.28,7.11,8,0-2.1-.19-4.2-.53-6.28-.3-1.93-.94-3.79-1.87-5.5-.5-.9-1.18-1.68-2-2.31-1.17-.82-2.57-1.25-4-1.21h-.85c-1.6.1-3.13.64-4.44,1.56-1.19.91-2.15,2.1-2.78,3.46-1.44,2.9-2,6.92-2,11,.12,5.85.89,11.66,2.3,17.34.32.2.61.42.91.65.13-.04.26-.06.39-.06.22,0,.43.05.63.14l.86-.12,2.07-.34,1.57-.22c-3.04-1.95-5.19-6.62-5.19-12.5Z"/>
      <path class="cls-4" d="M56.26,77c0-7.52,3.5-13.62,7.82-13.62,2.06,0,3.94,1.41,5.33,3.69-.32-2.51-1.02-4.95-2.07-7.25-.56-1.22-1.35-2.32-2.34-3.23-1.28-1.12-2.93-1.71-4.63-1.66-.51,0-1.02.04-1.52.11-1.53.2-2.98.77-4.23,1.66-1.12.84-2.04,1.93-2.67,3.18-1.37,2.6-1.94,6.18-1.93,10,.09,4.72.69,9.41,1.79,14,.66,2.94,1.35,5.31,1.77,6.66.76-.2,1.57-.38,2.42-.54,1.81-.26,3.64-.41,5.47-.46-3.03-1.96-5.21-6.65-5.21-12.54Z"/>
      <path class="cls-1" d="M131.37,52.14c-1.01-5.72-3.18-11.16-6.39-16-3-4.5-6.68-8.5-10.91-11.88-6.92-5.59-14.91-9.72-23.47-12.15-.8-.21-1.29-1.02-1.08-1.83.07-.26.2-.49.39-.68l.26-.26.65-.68c.53-.56,1.21-1.29,1.8-2,.18-.21.34-.41.49-.61h-.24c-1.25-.16-2.5-.24-3.76-.22-1.7,0-3.56.1-5.18.26-1.26.1-2.5.29-3.73.59h-.15c-.07.1-.15.18-.24.25-.48.38-1.14.42-1.67.11h-.06l-.18-.1-.66-.37c-.57-.32-1.36-.74-2.26-1.19-1.74-.93-3.57-1.68-5.46-2.24h-.08l.4.5c.43.51.89,1,1.38,1.46h0c.54.49.65,1.28.27,1.9-.38.61-1.13.87-1.8.61l-.29-.11-.82-.3-2.85-1c-2.32-.79-5.31-1.75-8-2.41-1.46-.39-2.95-.65-4.46-.79h-.13c-.13-.01-.27-.01-.4,0,0,.05,0,.1,0,.15.01.47.1.93.26,1.37.21.59.47,1.16.76,1.71.41.78.87,1.53,1.37,2.26h0c.48.68.31,1.61-.37,2.09-.17.12-.36.2-.55.24h-.06l-.23.05-.9.22c-.78.2-1.93.52-3.36,1-3.84,1.25-7.58,2.79-11.19,4.61-8.75,4.44-19.24,11.8-26.2,23.47-4.64,7.83-7.74,17.49-7.74,29.69v2.14c-.13,7.1,1.07,14.15,3.54,20.81,1.98,5.13,4.93,9.84,8.67,13.88,1,1.09,2.05,2.1,3.11,3.06-.95-1.72-1.47-3.65-1.51-5.62,0-1.56.37-3.11,1.06-4.51.76-1.51,1.78-2.88,3-4.05,1.77-1.55,3.74-2.84,5.86-3.84,2.04-.98,3.99-2.15,5.81-3.49,2.02-1.67,3.17-4.18,3.13-6.8,0-.63-.07-1.26-.2-1.88-1.23-5.73-1.9-11.56-2-17.42,0-6.18,1-11.41,3.13-15.63,2.07-4.18,5.59-7.48,9.89-9.28,3.28-1.34,6.77-2.09,10.31-2.23h1.21c3.75-.04,7.43,1.09,10.52,3.22,2.62,1.85,4.83,4.21,6.52,6.94,1.28,2.02,2.35,4.17,3.19,6.41.49-.84,1.08-1.8,1.77-2.82,2.6-4.03,5.98-7.5,9.95-10.19,3.01-1.99,6.54-3.07,10.15-3.12,2.81.02,5.58.66,8.11,1.87,2.09.96,3.91,2.4,5.33,4.21,1.39,1.8,2.46,3.83,3.16,6,1.41,4.82,2.05,9.82,1.9,14.84,0,4-.26,8.1-.51,11.87s-.5,7.26-.5,10.1c-.07,1.76.11,3.52.54,5.23.66,2,1.61,3.89,2.83,5.6.2-.33.43-.71.67-1.14,1.38-2.4,2.6-4.88,3.67-7.43,3.42-7.93,5.24-16.46,5.33-25.1,0-3.13-.26-6.26-.8-9.35Z"/>
      <path class="cls-4" d="M116.82,90.47c-.53-2-.76-4.07-.69-6.14,0-3,.26-6.53.51-10.3s.5-7.77.5-11.67c.05-3.61-.25-7.22-.92-10.77-.51-2.98-1.71-5.8-3.49-8.24-1.12-1.44-2.57-2.59-4.23-3.35-2.14-1.03-4.48-1.58-6.86-1.6-2.95.04-5.82.91-8.3,2.5-2.46,1.58-4.66,3.53-6.52,5.78-2.38,2.83-4.4,5.95-6,9.29h0c-.27.59-.88.94-1.52.88-.62-.06-1.14-.5-1.3-1.11h0v-.08c-.02-.11-.05-.21-.08-.32-.08-.28-.19-.69-.36-1.21-.45-1.39-.99-2.74-1.62-4.06-1.65-3.73-4.24-6.97-7.52-9.39-2.61-1.8-5.71-2.74-8.88-2.68h-1c-5.43.31-9.6,1.67-12.71,4-3.23,2.47-5.52,5.98-6.49,9.93-.89,3.34-1.31,6.79-1.25,10.25.09,5.66.73,11.29,1.91,16.82.17.81.25,1.64.25,2.47.03,3.52-1.53,6.87-4.25,9.11-1.98,1.47-4.08,2.74-6.3,3.81-1.87.87-3.6,1.98-5.17,3.32-.98.93-1.79,2.02-2.41,3.22-.49.99-.75,2.09-.76,3.2,0,2,.89,4.33,2.94,6.89,2.75,3.21,5.97,5.99,9.54,8.25.34.23.71.44,1.07.66l2.92,1.62h0c.09.05.17.11.24.17,5.18,2.5,10.64,4.37,16.26,5.55,7.62,1.67,15.4,2.52,23.2,2.55,2.78,0,5.55-.13,8.31-.42,6.73-.74,13.35-2.25,19.73-4.5,5.25-1.77,10.22-4.27,14.77-7.42,2.08-1.42,3.87-3.21,5.29-5.29.52-.79.86-1.67,1-2.6.05-.41.08-.83.08-1.25,0-1.4-.34-2.77-1-4-.73-1.29-1.59-2.5-2.57-3.61-2.14-2.48-4.79-5.48-6.32-10.26ZM112.29,92.35c-.42.71-1.34.95-2.05.53-2.15-1.14-4.57-1.7-7-1.6-2.4.06-4.79.32-7.14.78,1.71,2.76,2.59,5.95,2.54,9.19,0,1.14-.1,2.28-.27,3.41.54-.24,1.11-.53,1.71-.86,1.06-.58,2.17-1.23,3.27-1.8h0c-.75-.36-1.05-1.26-.69-2.01.36-.75,1.26-1.05,2.01-.69.47.24.87.58,1.19,1,.29.37.53.78.72,1.22.35.83.56,1.72.62,2.62.05.83-.58,1.54-1.41,1.59-.6.04-1.17-.29-1.43-.83-.88.47-1.84,1-2.82,1.57-1.21.71-2.5,1.26-3.85,1.64-.28,1.06-.61,2.11-1,3.14-.55,1.5-1.22,2.96-2,4.36-.26.45-.73.73-1.25.74-.48.02-.95-.21-1.23-.6h0l-.09-.1c-.28-.23-.58-.45-.89-.64-1.93-1.11-3.98-2-6.11-2.65-2.16-.68-4.35-1.25-6.56-1.71-1.54-.32-3.04-.79-4.49-1.4-1.24-.18-8.61-1.23-14.78-2.53-1.91-.4-3.67-.83-5.16-1.27,0,.19-.06.37-.07.53-.03.83-.73,1.48-1.56,1.44s-1.48-.73-1.44-1.56c.07-1.15.41-2.27,1-3.26.57-1.05,1.41-1.92,2.44-2.52h0c.7-.44,1.63-.24,2.07.46.44.7.24,1.63-.46,2.07-.05.03-.1.06-.16.09l-.14.1c2.53.68,6,1.38,9.21,2,1.43.25,2.81.48,4.06.68-1.44-1.67-2.23-3.8-2.25-6,.03-1.99.61-3.93,1.67-5.62.21-.36.45-.69.69-1-1.55-.12-3.58-.23-5.8-.23-2.3-.02-4.61.13-6.89.45-1.99.24-3.93.81-5.74,1.68-.7.44-1.63.23-2.07-.47-.44-.7-.23-1.63.47-2.07.06-.03.11-.07.17-.09.46-.25.93-.47,1.42-.66-.39-1.28-1-3.41-1.64-6.05-1.28-5.09-1.99-10.31-2.11-15.56-.06-2.97.35-5.94,1.2-8.79.78-2.7,2.4-5.08,4.63-6.8,1.64-1.18,3.55-1.94,5.56-2.2.66-.1,1.33-.15,2-.15,2.42-.04,4.77.81,6.6,2.39,1.73,1.6,3.04,3.6,3.82,5.83,1.7,4.59,2.19,10.29,2.19,15.57-.02,4.7-.35,9.4-1,14.06.14-.13.29-.25.44-.36,1.51-1.09,3.2-1.88,5-2.34,1.99-.53,4.04-.8,6.1-.79,1.91,0,3.82.25,5.66.77-1.16-5.22-1.79-10.54-1.88-15.88-.06-3.22.35-6.43,1.2-9.53.74-2.92,2.43-5.52,4.8-7.39,1.76-1.26,3.84-2,6-2.13.37,0,.74-.05,1.1-.05,2.07-.04,4.11.58,5.8,1.78,1.55,1.18,2.77,2.74,3.54,4.53,1.64,3.6,2.13,8.13,2.14,12.63-.1,6.16-.81,12.29-2.13,18.31.7.27,1.36.61,2,1,.69.42.93,1.32.52,2.02Z"/>
      <path class="cls-3" d="M135.17,61.49c0-3.31-.28-6.61-.85-9.87-1.08-6.1-3.4-11.92-6.83-17.08-4.73-6.96-10.89-12.83-18.06-17.24-4.89-3.11-10.16-5.59-15.67-7.39l.46-.5c.54-.61,1.09-1.26,1.54-1.85.21-.28.41-.57.58-.87.09-.16.17-.32.23-.49.09-.24.15-.49.15-.74,0-.32-.09-.63-.26-.9h0c-.18-.29-.43-.54-.72-.72-.42-.25-.87-.44-1.34-.56-.79-.19-1.59-.31-2.4-.37-.89-.07-1.86-.1-2.88-.1-2.34,0-4.68.16-7,.45-.89.11-1.77.27-2.64.5-.22.06-.44.14-.65.23-.76-.42-1.94-1.05-3.27-1.7-1.16-.57-2.35-1.08-3.56-1.53-.58-.22-1.17-.39-1.77-.53-.54-.14-1.09-.22-1.65-.23h-.52c-.55.06-1.07.29-1.49.66-.22.22-.4.48-.51.77-.1.26-.15.53-.15.81,0,.3.06.6.16.89l-1.93-.64c-1.82-.58-3.79-1.16-5.66-1.63C56.82.41,55.12.13,53.4,0h-.26c-.46,0-.93.06-1.37.2-.66.21-1.23.66-1.6,1.25-.3.53-.45,1.13-.45,1.74.03.84.21,1.68.52,2.46.37.96.82,1.88,1.34,2.76-8.55,2.42-16.64,6.24-23.95,11.3-7.25,4.96-13.37,11.41-17.94,18.92C4.79,46.85,1.52,57.15,1.53,69.86v2.14c-.13,7.47,1.14,14.9,3.75,21.9,3.09,7.91,8.24,14.85,14.91,20.1,4.14,3.23,8.56,6.08,13.2,8.53,5.65,3.49,12.78,6,20.27,7.66,7.83,1.72,15.83,2.61,23.85,2.63,2.88,0,5.76-.14,8.63-.44,10.21-1.07,20.15-3.94,29.36-8.48,3.52-1.72,6.78-3.93,9.68-6.56,1.15-1.06,2.16-2.26,3-3.58.74-1.16,1.23-2.46,1.42-3.82.07-.53.1-1.07.1-1.6,0-1.86-.45-3.7-1.32-5.34-1.11-1.9-2.42-3.69-3.9-5.32,1.99-3.16,3.71-6.48,5.14-9.92,3.57-8.3,5.46-17.23,5.55-26.27ZM126.68,108.34c0,.42-.03.84-.08,1.25-.14.93-.48,1.81-1,2.6-1.42,2.08-3.21,3.87-5.29,5.29-4.55,3.15-9.52,5.65-14.77,7.42-6.38,2.25-13,3.76-19.73,4.5-2.76.29-5.53.43-8.31.42-7.8-.03-15.58-.88-23.2-2.55-5.62-1.18-11.08-3.05-16.26-5.55-.07-.06-.15-.12-.24-.17h0l-2.92-1.62c-.36-.22-.73-.43-1.07-.66-3.57-2.27-6.78-5.06-9.53-8.27-2.05-2.56-2.94-4.85-2.94-6.89,0-1.11.27-2.21.76-3.2.62-1.2,1.43-2.29,2.41-3.22,1.57-1.34,3.3-2.45,5.17-3.32,2.22-1.06,4.34-2.33,6.32-3.79,2.72-2.25,4.28-5.61,4.24-9.14,0-.82-.08-1.64-.24-2.44-1.19-5.53-1.83-11.17-1.92-16.83-.07-3.47.34-6.93,1.22-10.28.98-3.94,3.27-7.43,6.49-9.89,3.11-2.29,7.28-3.65,12.71-4h1c3.15-.04,6.23.91,8.82,2.7,3.28,2.42,5.87,5.66,7.52,9.39.63,1.32,1.17,2.67,1.62,4.06.17.52.28.93.36,1.21.03.11.06.21.08.32v.08h0c.14.63.67,1.1,1.31,1.16.68.09,1.33-.29,1.59-.92h0c1.6-3.34,3.62-6.46,6-9.29,1.86-2.25,4.06-4.2,6.52-5.78,2.48-1.59,5.35-2.46,8.3-2.5,2.38.01,4.73.55,6.88,1.57,1.66.76,3.11,1.91,4.23,3.34,1.78,2.44,2.98,5.26,3.49,8.24.67,3.55.97,7.16.92,10.77,0,3.9-.25,7.91-.5,11.67s-.51,7.3-.51,10.3c-.07,2.07.16,4.14.69,6.14,1.53,4.78,4.22,7.78,6.31,10.31.98,1.11,1.84,2.32,2.57,3.61.65,1.22.98,2.58.98,3.96ZM123.17,94c-.24.43-.47.81-.67,1.14-1.22-1.71-2.17-3.6-2.83-5.6-.43-1.71-.61-3.47-.54-5.23,0-2.84.25-6.33.5-10.1s.51-7.84.51-11.87c.15-5.02-.49-10.02-1.9-14.84-.7-2.17-1.77-4.2-3.16-6-1.42-1.81-3.24-3.25-5.33-4.21-2.53-1.21-5.3-1.85-8.11-1.87-3.61.05-7.14,1.13-10.15,3.12-3.97,2.69-7.35,6.16-9.95,10.19-.69,1-1.28,2-1.77,2.82-.84-2.24-1.91-4.39-3.19-6.41-1.69-2.73-3.9-5.09-6.52-6.94-3.09-2.12-6.77-3.24-10.52-3.2h-1.21c-3.52.14-7,.9-10.26,2.23-4.3,1.8-7.82,5.1-9.89,9.28-2.18,4.22-3.12,9.49-3.13,15.63.1,5.86.77,11.69,2,17.42.13.62.19,1.25.19,1.88.04,2.62-1.11,5.13-3.13,6.8-1.82,1.34-3.77,2.51-5.81,3.49-2.12,1-4.09,2.29-5.86,3.84-1.22,1.17-2.24,2.54-3,4.05-.69,1.4-1.05,2.95-1.06,4.51.04,1.97.56,3.9,1.51,5.62-1.06-1-2.1-2-3.11-3.06-3.76-4.03-6.71-8.74-8.71-13.88-2.48-6.65-3.69-13.71-3.57-20.81v-2.15c0-12.2,3.1-21.91,7.74-29.69,7-11.67,17.45-19,26.24-23.44,3.62-1.81,7.37-3.35,11.22-4.6,1.43-.46,2.58-.78,3.36-1l.9-.22.23-.05h.06c.81-.17,1.33-.96,1.16-1.78-.04-.2-.12-.39-.24-.55h0c-.5-.73-.96-1.48-1.37-2.26-.31-.56-.58-1.14-.8-1.74-.17-.42-.27-.86-.3-1.31,0-.05,0-.1,0-.15.13-.01.27-.01.4,0h.13c1.52.13,3.02.39,4.49.78,2.66.66,5.65,1.62,8,2.41l2.85,1,.82.3.29.11c.68.25,1.45-.03,1.81-.66.38-.61.27-1.4-.25-1.89h0c-.49-.46-.95-.95-1.38-1.47l-.4-.5h.08c1.89.56,3.72,1.31,5.46,2.24.9.45,1.69.87,2.26,1.19l.66.37.18.1h.06c.51.32,1.16.31,1.65-.04.09-.07.17-.15.24-.25h.15c1.23-.3,2.47-.49,3.73-.59,1.62-.16,3.48-.26,5.18-.26,1.25-.06,2.51-.02,3.76.1h.24c-.15.2-.31.4-.49.61-.59.69-1.27,1.42-1.8,2l-.65.68-.26.26c-.58.59-.58,1.54,0,2.12.19.19.43.32.68.39,8.57,2.44,16.55,6.59,23.47,12.2,4.24,3.39,7.92,7.41,10.93,11.93,3.21,4.84,5.38,10.28,6.39,16,.54,3.09.8,6.22.8,9.35-.09,8.64-1.91,17.17-5.33,25.1-1.08,2.53-2.31,4.98-3.69,7.36Z"/>
      <path class="cls-3" d="M111.77,90.3c-.64-.39-1.3-.73-2-1,1.31-6.02,2.01-12.15,2.1-18.3,0-4.5-.5-9-2.14-12.63-.77-1.79-1.99-3.35-3.54-4.53-1.69-1.2-3.73-1.82-5.8-1.78-.36,0-.73,0-1.1.05-2.16.13-4.24.87-6,2.13-2.37,1.87-4.06,4.47-4.8,7.39-.85,3.1-1.26,6.31-1.2,9.53.09,5.34.72,10.66,1.88,15.88-1.84-.52-3.75-.78-5.66-.77-2.06,0-4.11.26-6.1.79-1.8.46-3.49,1.25-5,2.34-.15.11-.3.23-.44.36.65-4.66.98-9.36,1-14.06,0-5.28-.49-11-2.25-15.57-.78-2.23-2.09-4.23-3.82-5.83-1.83-1.58-4.18-2.43-6.6-2.39-.67,0-1.34.05-2,.15-2.01.26-3.92,1.02-5.56,2.2-2.23,1.72-3.85,4.1-4.63,6.8-.83,2.86-1.2,5.83-1.11,8.81.09,5.22.76,10.41,2,15.48.63,2.64,1.25,4.77,1.64,6.05-.49.19-.96.41-1.42.66-.75.35-1.08,1.24-.73,1.99.35.75,1.24,1.08,1.99.73.06-.03.12-.06.17-.09,1.82-.88,3.77-1.45,5.77-1.69,2.28-.32,4.59-.47,6.89-.45,2.22,0,4.25.11,5.8.23-.24.34-.48.67-.69,1-1.06,1.69-1.64,3.63-1.67,5.62.02,2.2.81,4.33,2.25,6-1.25-.2-2.63-.43-4.06-.68-3.24-.58-6.68-1.28-9.21-2l.14-.1c.75-.36,1.07-1.25.71-2-.36-.75-1.25-1.07-2-.71-.05.03-.11.06-.16.09h0c-1.03.62-1.87,1.52-2.42,2.59-.59.99-.93,2.11-1,3.26-.03.83.62,1.52,1.44,1.56s1.52-.62,1.56-1.44c0-.16,0-.34.07-.53,1.49.44,3.25.87,5.16,1.27,6.17,1.3,13.54,2.35,14.78,2.53,1.45.61,2.95,1.08,4.49,1.4,2.21.46,4.4,1.03,6.56,1.71,2.13.65,4.18,1.54,6.11,2.66.31.19.61.41.89.64l.09.1h0c.28.39.75.62,1.23.6.52,0,.99-.29,1.25-.74.78-1.4,1.45-2.86,2-4.36.39-1.03.72-2.08,1-3.14,1.35-.38,2.64-.93,3.85-1.64,1-.54,1.94-1.1,2.82-1.57.37.74,1.27,1.04,2.01.67.54-.27.87-.83.83-1.43-.06-.9-.27-1.79-.62-2.62-.19-.44-.43-.85-.72-1.22-.32-.42-.72-.76-1.19-1-.75-.36-1.65-.06-2.01.69-.36.75-.06,1.65.69,2.01h0c-1.1.57-2.21,1.22-3.27,1.8-.6.33-1.17.62-1.71.86.17-1.13.26-2.27.27-3.41.05-3.24-.83-6.43-2.54-9.19,2.35-.46,4.74-.72,7.14-.78,2.43-.1,4.85.46,7,1.6.72.41,1.64.16,2.05-.56.4-.7.17-1.6-.52-2.02h.06ZM56,90c-.83.13-1.64.29-2.43.48-.42-1.35-1.11-3.72-1.77-6.66-1.1-4.59-1.7-9.28-1.79-14,0-3.81.56-7.39,1.93-10,.63-1.25,1.55-2.34,2.67-3.18,1.24-.88,2.69-1.44,4.2-1.64.5-.07,1.01-.11,1.52-.11,1.72-.05,3.39.56,4.67,1.7,1,.9,1.81,2,2.38,3.22,1.05,2.3,1.75,4.74,2.07,7.25-1.39-2.28-3.27-3.69-5.33-3.69-4.32,0-7.82,6.1-7.82,13.62,0,5.9,2.18,10.59,5.18,12.59-1.83.04-3.66.18-5.48.42ZM93.88,110.12c-.35.92-.7,1.71-1,2.34h-.09c-2.13-1.26-4.39-2.26-6.75-3-3.5-1.17-6.35-1.59-8.65-2.25-1.1-.27-2.16-.68-3.15-1.21-1.03-.59-1.96-1.35-2.74-2.25h0c-1.11-1.16-1.73-2.7-1.75-4.31.04-1.45.47-2.86,1.25-4.08.62-1.02,1.39-1.94,2.27-2.74h0c.3-.27.61-.53.93-.78,1.21-.85,2.57-1.46,4-1.82,1.73-.47,3.52-.7,5.31-.69,1.85-.03,3.69.25,5.45.82.43.15.85.32,1.26.53.23.24.53.41.86.47.62.38,1.18.86,1.65,1.42,1.95,2.48,2.97,5.57,2.88,8.72-.06,3.04-.66,6.04-1.76,8.87l.03-.04ZM95.45,89.12l-.86.12c-.2-.09-.41-.14-.63-.14-.13,0-.26.02-.39.06-.3-.23-.59-.45-.91-.65-1.41-5.68-2.18-11.49-2.3-17.34,0-4.12.55-8.14,2-11,.63-1.36,1.59-2.55,2.78-3.46,1.31-.92,2.84-1.46,4.44-1.56h.85c1.43-.04,2.83.39,4,1.21.82.63,1.5,1.41,2,2.31.93,1.71,1.57,3.57,1.87,5.5.34,2.08.52,4.18.53,6.28-1.23-4.7-4-8-7.11-8-4.32,0-7.82,6.09-7.82,13.61,0,5.87,2.15,10.54,5.13,12.56l-1.57.22-2.01.28Z"/>
      <path class="cls-5" d="M28.11,149.97s2.76,28.55,9.47,40.12c6.21,10.72,58.17,17.97,65.02,3.23,6.85-14.74-32.4-22.03-38.02-23.4s-6.47-24.36-9.47-31.82c-3.76-9.53-26.6-6.5-27.01,11.87Z"/>
    </g>
  </g>
</svg>