<svg xmlns="http://www.w3.org/2000/svg" viewBox="0 0 241.59 268.99"><defs><style>.cls-1,.cls-9{fill:#e34f89;}.cls-1,.cls-2,.cls-3,.cls-4{stroke:#000;stroke-linecap:round;stroke-linejoin:round;stroke-width:3px;}.cls-2,.cls-8{fill:#e41b4b;}.cls-3{fill:#339a4a;}.cls-4{fill:#ffcf08;}.cls-5{fill:#fff;}.cls-6{fill:#fdcea7;}.cls-7{fill:#91d9f8;}</style></defs><g id="Layer_2" data-name="Layer 2"><g id="Layer_1-2" data-name="Layer 1"><path class="cls-1" d="M136,180.1c-3.61-9.63-8.51-21.81-5.17-26.18s16.19-10.78,23.94,14.5c2.58,3.68,22.19-7.87,25.88-3.35s5.52,14.87-4,17.38-15.09,5.21-25.54,6.27S137,182.84,136,180.1Z"/><path class="cls-2" d="M176.12,168.72c-.72-9.38,13.26-21,21.36-10.41s3.86,20.51-7.5,22.83S176.65,175.77,176.12,168.72Z"/><path class="cls-3" d="M120.57,221.31c-6.1,5-32,26.5-38.09,27.29s-16.65-6.13-16-13.36,16.87-23.19,25.73-28.38,33.84-7.13,36.51-.68S128.38,214.93,120.57,221.31Z"/><path class="cls-2" d="M66.76,235.16c-.93-5-14.51,6.05-13,12.63s9.76,16.61,17.44,17.71c5.79.84,20,1.38,20.85-3.05s-3.68-13.29-10.28-14.72S68.17,242.79,66.76,235.16Z"/><path class="cls-4" d="M128.83,219.44c-2.9,2.33-8,4.13-13.72,4.82C102.44,225.79,86.36,222,82.3,207c-5.9-21.81,5.53-48.48,10.84-55.53,3.79-5.05,25.62-4.7,38.62-2.78,5.15.76,8.92,1.77,9.64,2.78C151.58,165.89,142.22,208.63,128.83,219.44Z"/><path class="cls-3" d="M128.83,219.44c-2.9,2.33-8,4.13-13.72,4.82l-.12-.18c22.52-20.37,16.77-75.4,16.77-75.4,5.15.76,8.92,1.77,9.64,2.78C151.58,165.89,142.22,208.63,128.83,219.44Z"/><path class="cls-5" d="M150.4,72.65a4.85,4.85,0,0,1,3.56.85,8.76,8.76,0,0,0-.67-.9,6.43,6.43,0,0,0-4.86-2.44h-.22a6.33,6.33,0,0,0-4.7,2.57,10.09,10.09,0,0,0-2,6.28v.44h0a10.36,10.36,0,0,0,2.35,6.32,6.46,6.46,0,0,0,4.87,2.43h.21a6.3,6.3,0,0,0,4.7-2.57l.2-.28a4.38,4.38,0,0,1-1.13.36c-2.95.51-5.84-2-6.47-5.61S147.46,73.17,150.4,72.65Z"/><path class="cls-5" d="M107.7,90.89a5.2,5.2,0,0,0,1-.09,6.12,6.12,0,0,0,4-2.65,8.39,8.39,0,0,0,1-2.07,4.93,4.93,0,0,1-3.32,2.39c-2.94.51-5.84-2-6.46-5.61s1.25-7,4.19-7.46A5.23,5.23,0,0,1,113,77.54a9.66,9.66,0,0,0-1.78-2.45A6.77,6.77,0,0,0,106.53,73a5.82,5.82,0,0,0-4.92,2.73A9.6,9.6,0,0,0,100,81.2a10.75,10.75,0,0,0,.17,1.94A10.43,10.43,0,0,0,103,88.78,6.81,6.81,0,0,0,107.7,90.89Z"/><path class="cls-6" d="M60.54,103.74a11.36,11.36,0,0,1-6-1.94l-.3-.21-.09.09A8.77,8.77,0,0,0,52.6,104a5,5,0,0,0-.42,1.94,4.67,4.67,0,0,0,.74,2.45,10.18,10.18,0,0,0,3,2.95c2.58,1.77,6.83,3.61,13.41,5.25a61.08,61.08,0,0,1-7.55-13A7.9,7.9,0,0,1,60.54,103.74Z"/><path class="cls-7" d="M142.87,136a65,65,0,0,1-16.11,3.92h0a78.17,78.17,0,0,1-9,.52A61.6,61.6,0,0,1,93,135.53a10.33,10.33,0,0,0-2.51,3,9.35,9.35,0,0,0-1.2,4.43,7.29,7.29,0,0,0,.65,3,7.93,7.93,0,0,0,2.15,2.78c2,1.71,5.4,3.13,10.64,3.58,4.79.41,9.77.64,14.57.64a113.93,113.93,0,0,0,14.51-.84,38.56,38.56,0,0,0,10.58-2.62,8.15,8.15,0,0,0,3.4-2.52,6.94,6.94,0,0,0,1.23-3.89,8,8,0,0,0-1.39-4.35A10,10,0,0,0,142.87,136Z"/><path class="cls-8" d="M123.79,114.33a13.31,13.31,0,0,0,8,2.57,14.47,14.47,0,0,0,2.52-.22,14,14,0,0,0,7.89-4.19,10.94,10.94,0,0,0,3-7.37,10.8,10.8,0,0,0-.14-1.69A10.28,10.28,0,0,0,141,96.94a13.25,13.25,0,0,0-8-2.58,14.47,14.47,0,0,0-2.52.22,14,14,0,0,0-7.89,4.2,10.87,10.87,0,0,0-3,7.36,10.7,10.7,0,0,0,.14,1.69A10.31,10.31,0,0,0,123.79,114.33Z"/><path class="cls-6" d="M170.49,85.52a14.41,14.41,0,0,1-1.74-7.28,19.71,19.71,0,0,1,.63-5,21.12,21.12,0,0,1-7.86-4.52,14,14,0,0,1-4-7.07,21.9,21.9,0,0,1-.53-4.43c-4.53,1.74-9,3.22-13.76,3.23a21,21,0,0,1-8.82-1.94,29.91,29.91,0,0,1-7.77-5.31,30.8,30.8,0,0,1-1.92,2.73,26.43,26.43,0,0,1-9.17,7.45,23.23,23.23,0,0,1-10,2.23,29.56,29.56,0,0,1-8.72-1.41A12.57,12.57,0,0,1,95.22,69a11.19,11.19,0,0,1-4.13,4,19.48,19.48,0,0,1-9.46,2.17c-.72,0-1.36,0-1.9-.07A28,28,0,0,1,79,80.4a14.58,14.58,0,0,1-4.55,7.95,10.63,10.63,0,0,1-6.88,2.3l-.44,0A24.64,24.64,0,0,1,67.55,95a11.18,11.18,0,0,1-1.13,5.32,6.48,6.48,0,0,1-1.85,2.15c.23.55.54,1.27,1,2.15a61.45,61.45,0,0,0,4.71,8.11A56.81,56.81,0,0,0,92,131.77a58.06,58.06,0,0,0,25.77,5.64,76.76,76.76,0,0,0,8.62-.5c15.77-1.91,25.84-8,32.46-15.38s9.78-16.16,11.36-23.45a84.41,84.41,0,0,0,1.54-11A8.13,8.13,0,0,1,170.49,85.52ZM130,91.63a17.61,17.61,0,0,1,3-.27,16.34,16.34,0,0,1,9.8,3.18,13.3,13.3,0,0,1,5.23,8.38l-1.48.26,1.48-.26a12.66,12.66,0,0,1,.19,2.2,13.91,13.91,0,0,1-3.82,9.4,16.91,16.91,0,0,1-9.58,5.12,17.39,17.39,0,0,1-3,.26,16.31,16.31,0,0,1-9.8-3.17,13.31,13.31,0,0,1-5.23-8.38,12.77,12.77,0,0,1-.19-2.21,13.87,13.87,0,0,1,3.82-9.39A16.92,16.92,0,0,1,130,91.63ZM97,81.2A12.53,12.53,0,0,1,99.16,74a9.1,9.1,0,0,1,5.91-3.88,8.08,8.08,0,0,1,1.46-.13,9.75,9.75,0,0,1,6.81,3,13.48,13.48,0,0,1,3.7,7.26l-1.48.26,1.48-.26a14.74,14.74,0,0,1,.21,2.45,12.57,12.57,0,0,1-2.17,7.22,8.88,8.88,0,0,1-7.38,4,9.83,9.83,0,0,1-6.81-3,13.39,13.39,0,0,1-3.69-7.27A14.56,14.56,0,0,1,97,81.2Zm53,40.58a1.49,1.49,0,0,1-1.8,1.12,5.87,5.87,0,0,1-.85-.26,1.55,1.55,0,0,1-.24.19c-.15.09-7.49,4.63-19.5,4.63a53.51,53.51,0,0,1-21.1-4.53,2.29,2.29,0,0,1-.27-.14,15.24,15.24,0,0,1-2.78,1.37,8.9,8.9,0,0,1-2.51.58,1.5,1.5,0,1,1-.15-3,5.15,5.15,0,0,0,1.14-.23,11.08,11.08,0,0,0,1.52-.6,10.83,10.83,0,0,0,2.81-1.91,3.28,3.28,0,0,0,.82-1.17h0a1.5,1.5,0,1,1,2.85.92,5.25,5.25,0,0,1-1.07,1.85l0,0a50.22,50.22,0,0,0,18.77,3.83,38.06,38.06,0,0,0,17.31-3.85,3.23,3.23,0,0,1-.36-1.4h0a1.5,1.5,0,0,1,3,0l0,.1a1.16,1.16,0,0,0,.23.24,3,3,0,0,0,1.06.47A1.5,1.5,0,0,1,150,121.78ZM156,87.49A9.33,9.33,0,0,1,149,91.21h-.33a9.42,9.42,0,0,1-7.15-3.48,13.3,13.3,0,0,1-3.06-8.15h0c0-.19,0-.38,0-.56a13.09,13.09,0,0,1,2.69-8.13,9.29,9.29,0,0,1,6.94-3.72h.33a9.44,9.44,0,0,1,7.14,3.49,13.34,13.34,0,0,1,3.07,8.15h0c0,.19,0,.38,0,.56A13.15,13.15,0,0,1,156,87.49Z"/><path class="cls-6" d="M179.78,88.79a11.22,11.22,0,0,1-2.83.4,8,8,0,0,1-2.33-.35,73.1,73.1,0,0,1-3.75,17.92c-.13.37-.28.75-.42,1.12a37.48,37.48,0,0,0,8.34-7.88c2.33-3.14,3.23-5.94,3.22-7.86a3.93,3.93,0,0,0-.7-2.47A2.39,2.39,0,0,0,179.78,88.79Z"/><path class="cls-9" d="M181.11,63.88A48.67,48.67,0,0,0,183.35,50c0-7.93-2.53-13.73-6.07-18a28.42,28.42,0,0,0-12.35-8.43,23.11,23.11,0,0,0-7.21-1.4,8.37,8.37,0,0,0-1.7.16,1.53,1.53,0,0,1-1.42-.44,1.5,1.5,0,0,1-.34-1.46,6.72,6.72,0,0,0,.29-2,8.38,8.38,0,0,0-3.19-6.28A12.82,12.82,0,0,0,143,9.24c-3.63,0-7.81,1.33-12.1,4.83a1.5,1.5,0,0,1-2.22-.36,23.13,23.13,0,0,0-8.59-8.22A21.16,21.16,0,0,0,110,3,24.69,24.69,0,0,0,95.94,7.52a18.65,18.65,0,0,0-7.75,11.07A1.47,1.47,0,0,1,87,19.76c-6.48,1-11.17,2.59-14.59,4.61a18.06,18.06,0,0,0-7.12,7.38,27.57,27.57,0,0,0-2.31,6.58,94.58,94.58,0,0,0-1.58,10.92,1.5,1.5,0,0,1-1,1.25,18.47,18.47,0,0,0-9.08,6.44,15.19,15.19,0,0,0-2.64,8.94c0,5.63,2.44,12,6.23,17.72A1.48,1.48,0,0,1,55,85.08c-1.49,3.08-2.45,5.91-2.44,8.18a6.35,6.35,0,0,0,.79,3.22,8.08,8.08,0,0,0,2.8,2.8,8.61,8.61,0,0,0,4.39,1.46,3.8,3.8,0,0,0,2.19-.63,4,4,0,0,0,1.45-2.21A9.79,9.79,0,0,0,64.55,95a24.52,24.52,0,0,0-.77-5.68,1.5,1.5,0,0,1,1.7-1.83,12.19,12.19,0,0,0,2.08.18,7.64,7.64,0,0,0,5-1.63,9.8,9.8,0,0,0,2.76-4A22.9,22.9,0,0,0,76.75,74c0-.26,0-.43,0-.49v0a1.52,1.52,0,0,1,.5-1.2,1.49,1.49,0,0,1,1.25-.35h0l.16,0,.64.08c.56,0,1.36.11,2.3.11a20.25,20.25,0,0,0,4.47-.47,11.68,11.68,0,0,0,4.38-1.88,7.91,7.91,0,0,0,2.16-2.36A10.36,10.36,0,0,0,94,62.15a1.51,1.51,0,0,1,2-1.38,27.53,27.53,0,0,0,9.55,1.85,20.21,20.21,0,0,0,8.61-1.89,22,22,0,0,0,6-4.2,25,25,0,0,0,4.77-6.37h0a1.48,1.48,0,0,1,1.1-.85,1.51,1.51,0,0,1,1.32.42,28.83,28.83,0,0,0,8.31,6.06,18,18,0,0,0,7.58,1.67c4.71,0,9.51-1.76,14.72-3.82a1.47,1.47,0,0,1,1.42.17,1.5,1.5,0,0,1,.63,1.28c0,.45,0,.89,0,1.33A16.59,16.59,0,0,0,161.12,63a11.4,11.4,0,0,0,4.49,5.16,23.18,23.18,0,0,0,6.06,2.69,1.47,1.47,0,0,1,.91.76,1.49,1.49,0,0,1,.07,1.19,16.68,16.68,0,0,0-.9,5.45,13.22,13.22,0,0,0,.74,4.54,5.38,5.38,0,0,0,2.14,2.82,4.35,4.35,0,0,0,2.32.59,8.45,8.45,0,0,0,2.34-.37h0A8.08,8.08,0,0,0,184,82.61a9.43,9.43,0,0,0,1.42-5.31c0-3.72-1.54-8.22-4.09-12.18A1.51,1.51,0,0,1,181.11,63.88Z"/><path d="M186.35,50a32,32,0,0,0-3.24-14.54,29.39,29.39,0,0,0-12.48-12.62,32.52,32.52,0,0,0-7-2.79,24,24,0,0,0-5.95-.87h-.22c0-.24.05-.48.05-.72a11.35,11.35,0,0,0-4.25-8.56A15.77,15.77,0,0,0,143,6.24a21.5,21.5,0,0,0-12.69,4.52,25.72,25.72,0,0,0-8.81-7.92A24.25,24.25,0,0,0,110,0,27.61,27.61,0,0,0,94.21,5.07,21.9,21.9,0,0,0,85.53,17a45.76,45.76,0,0,0-13.35,4.09,22.64,22.64,0,0,0-6.69,5.09,24.13,24.13,0,0,0-5.16,10.24A81.08,81.08,0,0,0,58.47,48a20.88,20.88,0,0,0-9.62,7.18,18.17,18.17,0,0,0-3.19,10.66c0,6.24,2.52,12.81,6.28,18.67a21.52,21.52,0,0,0-2.38,8.71A9,9,0,0,0,52,99.62c-.24.27-.5.57-.77.92a11.72,11.72,0,0,0-1.36,2.34,8,8,0,0,0-.65,3.1,7.7,7.7,0,0,0,1.18,4c1.25,2,3.47,3.91,7.06,5.67a65.4,65.4,0,0,0,15,4.74c.28.32.56.65.85,1a58.16,58.16,0,0,0,16.8,12.78,13.24,13.24,0,0,0-2.19,2.9,12.17,12.17,0,0,0-1.58,5.88,10.44,10.44,0,0,0,3.86,8.1c2.66,2.26,6.68,3.8,12.32,4.29,4.88.42,9.93.65,14.83.65a100.65,100.65,0,0,0,19.2-1.57,32.77,32.77,0,0,0,7.14-2.17,10.8,10.8,0,0,0,4.64-3.58,9.9,9.9,0,0,0,1.74-5.55,11,11,0,0,0-1.89-6,12.84,12.84,0,0,0-2.15-2.49,48.74,48.74,0,0,0,6.66-3.77,46.27,46.27,0,0,0,15.64-18.08,1.43,1.43,0,0,0,.47-.18,44,44,0,0,0,12.41-10.82c2.6-3.52,3.8-6.83,3.81-9.64a7,7,0,0,0-1.33-4.32,5.1,5.1,0,0,0-.46-.47,10.23,10.23,0,0,0,3.23-3.07,12.4,12.4,0,0,0,1.93-7,26.35,26.35,0,0,0-4.21-13.21A51.34,51.34,0,0,0,186.35,50ZM56,111.38a10.18,10.18,0,0,1-3-2.95,4.67,4.67,0,0,1-.74-2.45A5,5,0,0,1,52.6,104a8.77,8.77,0,0,1,1.54-2.36l.09-.09.3.21a11.36,11.36,0,0,0,6,1.94,7.9,7.9,0,0,0,1.28-.11,61.08,61.08,0,0,0,7.55,13C62.79,115,58.54,113.15,56,111.38Zm91.1,31.73a6.94,6.94,0,0,1-1.23,3.89,8.15,8.15,0,0,1-3.4,2.52,38.56,38.56,0,0,1-10.58,2.62,113.93,113.93,0,0,1-14.51.84c-4.8,0-9.78-.23-14.57-.64-5.24-.45-8.63-1.87-10.64-3.58A7.93,7.93,0,0,1,90,146a7.29,7.29,0,0,1-.65-3,9.35,9.35,0,0,1,1.2-4.43,10.33,10.33,0,0,1,2.51-3,61.6,61.6,0,0,0,24.74,4.88,78.17,78.17,0,0,0,9-.52h0A65,65,0,0,0,142.87,136a10,10,0,0,1,2.8,2.79A8,8,0,0,1,147.06,143.11Zm11.8-21.58c-6.62,7.38-16.69,13.47-32.46,15.38a76.76,76.76,0,0,1-8.62.5A58.06,58.06,0,0,1,92,131.77a56.81,56.81,0,0,1-21.77-19.06,61.45,61.45,0,0,1-4.71-8.11c-.42-.88-.73-1.6-1-2.15a6.48,6.48,0,0,0,1.85-2.15A11.18,11.18,0,0,0,67.55,95a24.64,24.64,0,0,0-.43-4.35l.44,0a10.63,10.63,0,0,0,6.88-2.3A14.58,14.58,0,0,0,79,80.4a28,28,0,0,0,.74-5.33c.54,0,1.18.07,1.9.07A19.48,19.48,0,0,0,91.09,73a11.19,11.19,0,0,0,4.13-4,12.57,12.57,0,0,0,1.61-4.76,29.56,29.56,0,0,0,8.72,1.41,23.23,23.23,0,0,0,10-2.23,26.43,26.43,0,0,0,9.17-7.45,30.8,30.8,0,0,0,1.92-2.73,29.91,29.91,0,0,0,7.77,5.31,21,21,0,0,0,8.82,1.94c4.74,0,9.23-1.49,13.76-3.23a21.9,21.9,0,0,0,.53,4.43,14,14,0,0,0,4,7.07,21.12,21.12,0,0,0,7.86,4.52,19.71,19.71,0,0,0-.63,5,14.41,14.41,0,0,0,1.74,7.28,8.13,8.13,0,0,0,1.27,1.6,84.41,84.41,0,0,1-1.54,11C168.64,105.37,165.48,114.14,158.86,121.53ZM178.79,100a37.48,37.48,0,0,1-8.34,7.88c.14-.37.29-.75.42-1.12a73.1,73.1,0,0,0,3.75-17.92,8,8,0,0,0,2.33.35,11.22,11.22,0,0,0,2.83-.4,2.39,2.39,0,0,1,1.53.88,3.93,3.93,0,0,1,.7,2.47C182,94.06,181.12,96.86,178.79,100Zm6.59-22.7A9.43,9.43,0,0,1,184,82.61a8.08,8.08,0,0,1-4.66,3.21h0a8.45,8.45,0,0,1-2.34.37,4.35,4.35,0,0,1-2.32-.59,5.38,5.38,0,0,1-2.14-2.82,13.22,13.22,0,0,1-.74-4.54,16.68,16.68,0,0,1,.9-5.45,1.49,1.49,0,0,0-.07-1.19,1.47,1.47,0,0,0-.91-.76,23.18,23.18,0,0,1-6.06-2.69A11.4,11.4,0,0,1,161.12,63,16.59,16.59,0,0,1,160,56.42c0-.44,0-.88,0-1.33a1.5,1.5,0,0,0-.63-1.28,1.47,1.47,0,0,0-1.42-.17c-5.21,2.06-10,3.83-14.72,3.82a18,18,0,0,1-7.58-1.67,28.83,28.83,0,0,1-8.31-6.06,1.51,1.51,0,0,0-1.32-.42,1.48,1.48,0,0,0-1.1.85h0a25,25,0,0,1-4.77,6.37,22,22,0,0,1-6,4.2,20.21,20.21,0,0,1-8.61,1.89A27.53,27.53,0,0,1,96,60.77a1.51,1.51,0,0,0-2,1.38,10.36,10.36,0,0,1-1.34,5.28,7.91,7.91,0,0,1-2.16,2.36,11.68,11.68,0,0,1-4.38,1.88,20.25,20.25,0,0,1-4.47.47c-.94,0-1.74-.06-2.3-.11L78.69,72l-.16,0h0a1.49,1.49,0,0,0-1.25.35,1.52,1.52,0,0,0-.5,1.2v0c0,.06,0,.23,0,.49a22.9,22.9,0,0,1-1.44,8.08,9.8,9.8,0,0,1-2.76,4,7.64,7.64,0,0,1-5,1.63,12.19,12.19,0,0,1-2.08-.18,1.5,1.5,0,0,0-1.7,1.83A24.52,24.52,0,0,1,64.55,95a9.79,9.79,0,0,1-.37,2.92,4,4,0,0,1-1.45,2.21,3.8,3.8,0,0,1-2.19.63,8.61,8.61,0,0,1-4.39-1.46,8.08,8.08,0,0,1-2.8-2.8,6.35,6.35,0,0,1-.79-3.22c0-2.27.95-5.1,2.44-8.18a1.48,1.48,0,0,0-.11-1.48c-3.79-5.68-6.24-12.09-6.23-17.72a15.19,15.19,0,0,1,2.64-8.94,18.47,18.47,0,0,1,9.08-6.44,1.5,1.5,0,0,0,1-1.25,94.58,94.58,0,0,1,1.58-10.92,27.57,27.57,0,0,1,2.31-6.58,18.06,18.06,0,0,1,7.12-7.38c3.42-2,8.11-3.59,14.59-4.61a1.47,1.47,0,0,0,1.23-1.17A18.65,18.65,0,0,1,95.94,7.52,24.69,24.69,0,0,1,110,3a21.16,21.16,0,0,1,10.09,2.49,23.13,23.13,0,0,1,8.59,8.22,1.5,1.5,0,0,0,2.22.36c4.29-3.5,8.47-4.83,12.1-4.83a12.82,12.82,0,0,1,8.34,2.9,8.38,8.38,0,0,1,3.19,6.28,6.72,6.72,0,0,1-.29,2,1.5,1.5,0,0,0,.34,1.46,1.53,1.53,0,0,0,1.42.44,8.37,8.37,0,0,1,1.7-.16,23.11,23.11,0,0,1,7.21,1.4A28.42,28.42,0,0,1,177.28,32c3.54,4.26,6.06,10.06,6.07,18a48.67,48.67,0,0,1-2.24,13.93,1.51,1.51,0,0,0,.18,1.24C183.84,69.08,185.39,73.58,185.38,77.3Z"/><path d="M116.75,108.35a13.31,13.31,0,0,0,5.23,8.38,16.31,16.31,0,0,0,9.8,3.17,17.39,17.39,0,0,0,3-.26,16.91,16.91,0,0,0,9.58-5.12,13.91,13.91,0,0,0,3.82-9.4,12.66,12.66,0,0,0-.19-2.2l-1.48.26,1.48-.26a13.3,13.3,0,0,0-5.23-8.38,16.34,16.34,0,0,0-9.8-3.18,17.61,17.61,0,0,0-3,.27,16.92,16.92,0,0,0-9.57,5.12,13.87,13.87,0,0,0-3.82,9.39A12.77,12.77,0,0,0,116.75,108.35Zm5.83-9.57a14,14,0,0,1,7.89-4.2,14.47,14.47,0,0,1,2.52-.22,13.25,13.25,0,0,1,8,2.58,10.28,10.28,0,0,1,4.09,6.49,10.8,10.8,0,0,1,.14,1.69,10.94,10.94,0,0,1-3,7.37,14,14,0,0,1-7.89,4.19,14.47,14.47,0,0,1-2.52.22,13.31,13.31,0,0,1-8-2.57,10.31,10.31,0,0,1-4.09-6.5,10.7,10.7,0,0,1-.14-1.69A10.87,10.87,0,0,1,122.58,98.78Z"/><path d="M107.7,93.89a8.88,8.88,0,0,0,7.38-4,12.57,12.57,0,0,0,2.17-7.22,14.74,14.74,0,0,0-.21-2.45l-1.48.26,1.48-.26a13.48,13.48,0,0,0-3.7-7.26,9.75,9.75,0,0,0-6.81-3,8.08,8.08,0,0,0-1.46.13A9.1,9.1,0,0,0,99.16,74,12.53,12.53,0,0,0,97,81.2a14.56,14.56,0,0,0,.21,2.45,13.39,13.39,0,0,0,3.69,7.27A9.83,9.83,0,0,0,107.7,93.89ZM100,81.2a9.6,9.6,0,0,1,1.62-5.49A5.82,5.82,0,0,1,106.53,73a6.77,6.77,0,0,1,4.71,2.11A9.66,9.66,0,0,1,113,77.54a5.23,5.23,0,0,0-4.94-2.14c-2.94.51-4.82,3.85-4.19,7.46s3.52,6.12,6.46,5.61a4.93,4.93,0,0,0,3.32-2.39,8.39,8.39,0,0,1-1,2.07,6.12,6.12,0,0,1-4,2.65,5.2,5.2,0,0,1-1,.09,6.81,6.81,0,0,1-4.7-2.11,10.43,10.43,0,0,1-2.84-5.64A10.75,10.75,0,0,1,100,81.2Z"/><path d="M158.64,78.8a13.34,13.34,0,0,0-3.07-8.15,9.44,9.44,0,0,0-7.14-3.49h-.33a9.29,9.29,0,0,0-6.94,3.72A13.09,13.09,0,0,0,138.47,79c0,.18,0,.37,0,.56h0a13.3,13.3,0,0,0,3.06,8.15,9.42,9.42,0,0,0,7.15,3.48H149A9.33,9.33,0,0,0,156,87.49a13.15,13.15,0,0,0,2.69-8.13c0-.18,0-.37,0-.56ZM146.2,80.11c.63,3.61,3.52,6.12,6.47,5.61a4.38,4.38,0,0,0,1.13-.36l-.2.28a6.3,6.3,0,0,1-4.7,2.57h-.21a6.46,6.46,0,0,1-4.87-2.43,10.36,10.36,0,0,1-2.35-6.32h0V79a10.09,10.09,0,0,1,2-6.28,6.33,6.33,0,0,1,4.7-2.57h.22a6.43,6.43,0,0,1,4.86,2.44,8.76,8.76,0,0,1,.67.9,4.85,4.85,0,0,0-3.56-.85C147.46,73.17,145.58,76.5,146.2,80.11Z"/><path d="M148.9,120a3,3,0,0,1-1.06-.47,1.16,1.16,0,0,1-.23-.24l0-.1a1.5,1.5,0,0,0-3,0h0a3.23,3.23,0,0,0,.36,1.4,38.06,38.06,0,0,1-17.31,3.85,50.22,50.22,0,0,1-18.77-3.83l0,0a5.25,5.25,0,0,0,1.07-1.85,1.5,1.5,0,1,0-2.85-.92h0a3.28,3.28,0,0,1-.82,1.17,10.83,10.83,0,0,1-2.81,1.91,11.08,11.08,0,0,1-1.52.6,5.15,5.15,0,0,1-1.14.23,1.5,1.5,0,1,0,.15,3,8.9,8.9,0,0,0,2.51-.58,15.24,15.24,0,0,0,2.78-1.37,2.29,2.29,0,0,0,.27.14,53.51,53.51,0,0,0,21.1,4.53c12,0,19.35-4.54,19.5-4.63a1.55,1.55,0,0,0,.24-.19,5.87,5.87,0,0,0,.85.26,1.5,1.5,0,0,0,.68-2.92Z"/><path class="cls-4" d="M85.49,213.91c1.93,6.09,37.8,40.3,48.14,40.75s17.25-1.79,18.38-7.58-25.63-36.83-33-42.49"/><path class="cls-2" d="M133.63,254.66c-6.28-.9-1.8,11.41,9.18,12.34s28.7.92,29.76-3.41-15.48-18.52-19.28-16.54C151.83,247.81,151.29,257.17,133.63,254.66Z"/><path class="cls-1" d="M71.18,165.78c7.38-7.17,16.58-16.53,21.92-15.22s16.36,10.52-3.7,27.75c-2.34,3.83,16.09,17.18,13.42,22.37s-11.41,11-17.53,3.3-10.81-11.75-16-20.9S69.08,167.81,71.18,165.78Z"/><path class="cls-2" d="M97.67,198c8.31-4.4,24.56,3.75,18.09,15.42s-17.24,11.74-23.92,2.26S91.42,201.32,97.67,198Z"/><path class="cls-4" d="M62.72,51.87S93.3,49.46,97.35,21.11c-7.53-9.67-37.9-25.46-60.75-4.92C40.07,18.8,61.07,28.82,62.72,51.87Z"/><circle class="cls-2" cx="19.64" cy="21.77" r="18.14"/><path class="cls-4" d="M178.87,49.83s-30.58-2.41-34.63-30.76c7.53-9.67,37.9-25.45,60.75-4.91C201.52,16.76,180.53,26.79,178.87,49.83Z"/><circle class="cls-2" cx="221.95" cy="19.73" r="18.14" transform="translate(30.67 134.03) rotate(-35.94)"/><ellipse class="cls-8" cx="94.15" cy="106.98" rx="6.57" ry="5.39"/><path class="cls-8" d="M164.2,103.42c1,2.8-1,6.07-4.37,7.29s-7-.06-8-2.86,1-6.07,4.37-7.29S163.19,100.61,164.2,103.42Z"/></g></g></svg>