<svg xmlns="http://www.w3.org/2000/svg" viewBox="0 0 165.82 277.94"><defs><style>.cls-1,.cls-5{fill:#282828;}.cls-1,.cls-2{stroke:#000;stroke-linecap:round;stroke-linejoin:round;stroke-width:3px;}.cls-2,.cls-4{fill:#f4b146;}.cls-3{fill:#fff;}</style></defs><g id="Layer_2" data-name="Layer 2"><g id="Layer_1-2" data-name="Layer 1"><path class="cls-1" d="M87,182.75c-4.71.43-70.74,25.16-68.18,55.7C23,258.21,68.7,248,78.22,243.38c14.51-7,26.87-20.34,30.4-36.6C112.3,189.8,95.39,182,87,182.75Z"/><path class="cls-2" d="M19.35,230.26s-.3-12-9.08-7.21-9.73,38.1-8.13,43,24.8,9.74,26.86,5.26-3.66-21-6.95-26.93S19.35,230.26,19.35,230.26Z"/><path class="cls-1" d="M87.05,148s8.9,25.21,17.57,34.17c8,8.3,56.64,3.21,59.54-11.68s-34.25-12.64-39.63-12.63-11.33-20.57-15.7-26.68C103.28,123.4,83.3,131.26,87.05,148Z"/><path class="cls-1" d="M107.85,135.39c7.09,20.52,20.34,72.92-16.51,101.75-33,20-72.72-5.1-77-34.64S31,136.57,38.74,130.43c7.19-5.72,22.26-23.49,57.37-7.82A21.82,21.82,0,0,1,107.85,135.39Z"/><path class="cls-3" d="M98.91,228.36h0c-15.9,12.7-32.84,3.38-35.57-16.77C60.56,191.14,82.7,161,67.49,129.32c0,0,12.68-5.91,19.65-9.62,2.36.81,4.8,1.77,7.36,2.91a21.83,21.83,0,0,1,11.75,12.78C112.66,154,124.12,198.66,98.91,228.36Z"/><path class="cls-1" d="M23.63,223.31c2.43,4.07,53.3,52.89,79.72,37.36,16-12.38-14.77-48.19-23-54.8-6-4.82-11.43-9.5-19-11.66"/><path class="cls-2" d="M95.72,263.69s-10.67,5.45-2.57,11.3,38.56-7.71,42.32-11.3-2-26.56-6.89-26.49-17.31,12.38-21.27,17.92S95.72,263.69,95.72,263.69Z"/><path class="cls-4" d="M91.12,91.11a1.59,1.59,0,0,1-.86-.47A9.52,9.52,0,0,0,89,90.11a16.93,16.93,0,0,0-5.45-.82,19.91,19.91,0,0,0-5.31.69,12,12,0,0,0-4,1.82q-.48.38-.93.78s0,0,0,0A12.49,12.49,0,0,0,71,95.36a8,8,0,0,0-1.24,4.08,6.36,6.36,0,0,0,1.75,4.31h0A10.78,10.78,0,0,0,74.24,106a13.37,13.37,0,0,0,3.12,1.24c2.3.66,5.15,1.08,8.65,2.25a32,32,0,0,1,6.75,3l.09,0c.3-.63.65-1.42,1-2.34a26,26,0,0,0,1.8-8.91,13.52,13.52,0,0,0-2.88-8.72A6.78,6.78,0,0,0,91.12,91.11Z"/><path class="cls-3" d="M93.93,76c0-7.52,3.5-13.61,7.82-13.61,3.16,0,5.88,3.28,7.11,8a39.19,39.19,0,0,0-.53-6.28,17,17,0,0,0-1.87-5.5,7.54,7.54,0,0,0-2-2.31,6.67,6.67,0,0,0-4-1.21c-.27,0-.56,0-.85,0a8.58,8.58,0,0,0-4.44,1.56,9.26,9.26,0,0,0-2.78,3.46c-1.44,2.9-2,6.92-2,11a79.13,79.13,0,0,0,2.3,17.34c.32.2.61.42.91.65a1.23,1.23,0,0,1,.39-.06,1.46,1.46,0,0,1,.63.14l.86-.12,2.07-.34,1.57-.22C96.08,86.55,93.93,81.88,93.93,76Z"/><path class="cls-3" d="M56.26,77c0-7.52,3.5-13.62,7.82-13.62,2.06,0,3.94,1.41,5.33,3.69a25.29,25.29,0,0,0-2.07-7.25A10,10,0,0,0,65,56.59a6.73,6.73,0,0,0-4.63-1.66,11.82,11.82,0,0,0-1.52.11,9.33,9.33,0,0,0-4.23,1.66,9.14,9.14,0,0,0-2.67,3.18c-1.37,2.6-1.94,6.18-1.93,10a65.69,65.69,0,0,0,1.79,14c.66,2.94,1.35,5.31,1.77,6.66Q54.72,90.24,56,90a48.23,48.23,0,0,1,5.47-.46C58.44,87.58,56.26,82.89,56.26,77Z"/><path class="cls-5" d="M131.37,52.14a42.14,42.14,0,0,0-6.39-16,52.6,52.6,0,0,0-10.91-11.88A66,66,0,0,0,90.6,12.11a1.5,1.5,0,0,1-.69-2.51l.26-.26.65-.68c.53-.56,1.21-1.29,1.8-2,.18-.21.34-.41.49-.61l-.24,0a26.4,26.4,0,0,0-3.76-.22c-1.7,0-3.56.1-5.18.26a23.66,23.66,0,0,0-3.73.59l-.15,0a1.13,1.13,0,0,1-.24.25,1.48,1.48,0,0,1-1.67.11l-.06,0-.18-.1-.66-.37c-.57-.32-1.36-.74-2.26-1.19a29.63,29.63,0,0,0-5.46-2.24h-.08l.4.5A18.29,18.29,0,0,0,71.22,5.1l0,0A1.5,1.5,0,0,1,71.49,7a1.49,1.49,0,0,1-1.8.61l-.29-.11-.82-.3-2.85-1c-2.32-.79-5.31-1.75-8-2.41A26.65,26.65,0,0,0,53.27,3h-.13a1.91,1.91,0,0,0-.4,0,.61.61,0,0,0,0,.15A4.36,4.36,0,0,0,53,4.52a13.38,13.38,0,0,0,.76,1.71,24,24,0,0,0,1.37,2.26l0,0a1.5,1.5,0,0,1-.92,2.33l-.06,0-.23.05-.9.22c-.78.2-1.93.52-3.36,1a80,80,0,0,0-11.19,4.61C29.72,21.14,19.23,28.5,12.27,40.17,7.63,48,4.53,57.66,4.53,69.86V70c0,.66,0,1.32,0,2A56.93,56.93,0,0,0,8.07,92.81a43.42,43.42,0,0,0,8.67,13.88c1,1.09,2.05,2.1,3.11,3.06a12.06,12.06,0,0,1-1.51-5.62,10.4,10.4,0,0,1,1.06-4.51,14.84,14.84,0,0,1,3-4.05,25.26,25.26,0,0,1,5.86-3.84,36.3,36.3,0,0,0,5.81-3.49,8.65,8.65,0,0,0,3.13-6.8A9.16,9.16,0,0,0,37,79.56a89.79,89.79,0,0,1-2-17.42c0-6.18,1-11.41,3.13-15.63a19.42,19.42,0,0,1,9.89-9.28A30.38,30.38,0,0,1,58.33,35l1.21,0a18.24,18.24,0,0,1,10.52,3.22,24,24,0,0,1,6.52,6.94,35.1,35.1,0,0,1,3.19,6.41c.49-.84,1.08-1.8,1.77-2.82a35.56,35.56,0,0,1,9.95-10.19,18.84,18.84,0,0,1,10.15-3.12,19.26,19.26,0,0,1,8.11,1.87,14.44,14.44,0,0,1,5.33,4.21,19.71,19.71,0,0,1,3.16,6,47.87,47.87,0,0,1,1.9,14.84c0,4-.26,8.1-.51,11.87s-.5,7.26-.5,10.1a18.35,18.35,0,0,0,.54,5.23,21,21,0,0,0,2.83,5.6c.2-.33.43-.71.67-1.14a66.77,66.77,0,0,0,3.67-7.43,65.12,65.12,0,0,0,5.33-25.1A54.18,54.18,0,0,0,131.37,52.14Z"/><path class="cls-3" d="M116.82,90.47a20.94,20.94,0,0,1-.69-6.14c0-3,.26-6.53.51-10.3s.5-7.77.5-11.67a54,54,0,0,0-.92-10.77,19.56,19.56,0,0,0-3.49-8.24A11.44,11.44,0,0,0,108.5,40a16.18,16.18,0,0,0-6.86-1.6,15.73,15.73,0,0,0-8.3,2.5,28.05,28.05,0,0,0-6.52,5.78,44.25,44.25,0,0,0-6,9.29l0,0a1.51,1.51,0,0,1-1.52.88A1.49,1.49,0,0,1,78,55.74h0l0-.08a2.91,2.91,0,0,0-.08-.32c-.08-.28-.19-.69-.36-1.21a32.79,32.79,0,0,0-1.62-4.06,23.51,23.51,0,0,0-7.52-9.39A15.17,15.17,0,0,0,59.54,38l-1,0c-5.43.31-9.6,1.67-12.71,4a17.86,17.86,0,0,0-6.49,9.93,37.68,37.68,0,0,0-1.25,10.25A87.1,87.1,0,0,0,40,79a12.18,12.18,0,0,1,.25,2.47A11.68,11.68,0,0,1,36,90.58a39.13,39.13,0,0,1-6.3,3.81,22.78,22.78,0,0,0-5.17,3.32,12,12,0,0,0-2.41,3.22,7.29,7.29,0,0,0-.76,3.2c0,2,.89,4.33,2.94,6.89a42.65,42.65,0,0,0,9.54,8.25c.34.23.71.44,1.07.66l2.92,1.62h0a1.46,1.46,0,0,1,.24.17,70.92,70.92,0,0,0,16.26,5.55,110.23,110.23,0,0,0,23.2,2.55,78.16,78.16,0,0,0,8.31-.42,88.74,88.74,0,0,0,19.73-4.5,59.16,59.16,0,0,0,14.77-7.42,20.07,20.07,0,0,0,5.29-5.29,6.57,6.57,0,0,0,1-2.6,11.35,11.35,0,0,0,.08-1.25,8.37,8.37,0,0,0-1-4,21.54,21.54,0,0,0-2.57-3.61C121,98.25,118.35,95.25,116.82,90.47Zm-4.53,1.88a1.5,1.5,0,0,1-2.05.53,13.73,13.73,0,0,0-7-1.6,43.35,43.35,0,0,0-7.14.78,16.87,16.87,0,0,1,2.54,9.19,23.66,23.66,0,0,1-.27,3.41c.54-.24,1.11-.53,1.71-.86,1.06-.58,2.17-1.23,3.27-1.8,0,0,0,0,0,0h0a1.5,1.5,0,1,1,1.32-2.7,3.54,3.54,0,0,1,1.19,1,5.59,5.59,0,0,1,.72,1.22,8.26,8.26,0,0,1,.62,2.62,1.5,1.5,0,0,1-2.84.76c-.88.47-1.84,1-2.82,1.57a16.52,16.52,0,0,1-3.85,1.64,31.41,31.41,0,0,1-1,3.14,30.82,30.82,0,0,1-2,4.36,1.47,1.47,0,0,1-1.25.74,1.45,1.45,0,0,1-1.23-.6h0l-.09-.1a7.73,7.73,0,0,0-.89-.64,29.18,29.18,0,0,0-6.11-2.65,65.67,65.67,0,0,0-6.56-1.71,24.88,24.88,0,0,1-4.49-1.4c-1.24-.18-8.61-1.23-14.78-2.53-1.91-.4-3.67-.83-5.16-1.27,0,.19-.06.37-.07.53a1.5,1.5,0,1,1-3-.11,7.21,7.21,0,0,1,1-3.26,6.48,6.48,0,0,1,2.44-2.52h0a1.5,1.5,0,1,1,1.45,2.62l-.14.1c2.53.68,6,1.38,9.21,2,1.43.25,2.81.48,4.06.68a9.31,9.31,0,0,1-2.25-6,10.92,10.92,0,0,1,1.67-5.62c.21-.36.45-.69.69-1-1.55-.12-3.58-.23-5.8-.23a46.81,46.81,0,0,0-6.89.45,18.15,18.15,0,0,0-5.74,1.68,1.5,1.5,0,1,1-1.43-2.63,13.15,13.15,0,0,1,1.42-.66c-.39-1.28-1-3.41-1.64-6.05A70.07,70.07,0,0,1,47,69.87a28.62,28.62,0,0,1,1.2-8.79,13.23,13.23,0,0,1,4.63-6.8,12.24,12.24,0,0,1,5.56-2.2,13.34,13.34,0,0,1,2-.15,9.83,9.83,0,0,1,6.6,2.39,14.36,14.36,0,0,1,3.82,5.83C72.51,64.74,73,70.44,73,75.72a105.92,105.92,0,0,1-1,14.06,5.28,5.28,0,0,1,.44-.36,14.87,14.87,0,0,1,5-2.34,23.5,23.5,0,0,1,6.1-.79,20.41,20.41,0,0,1,5.66.77,79.45,79.45,0,0,1-1.88-15.88,33.8,33.8,0,0,1,1.2-9.53,13.72,13.72,0,0,1,4.8-7.39,11.45,11.45,0,0,1,6-2.13c.37,0,.74-.05,1.1-.05a9.72,9.72,0,0,1,5.8,1.78,11.32,11.32,0,0,1,3.54,4.53c1.64,3.6,2.13,8.13,2.14,12.63a92.7,92.7,0,0,1-2.13,18.31,12.57,12.57,0,0,1,2,1A1.49,1.49,0,0,1,112.29,92.35Z"/><path d="M135.17,61.49a56.35,56.35,0,0,0-.85-9.87,45.07,45.07,0,0,0-6.83-17.08A59.57,59.57,0,0,0,109.43,17.3,69.47,69.47,0,0,0,93.76,9.91l.46-.5c.54-.61,1.09-1.26,1.54-1.85a7.31,7.31,0,0,0,.58-.87,2.78,2.78,0,0,0,.23-.49,2.07,2.07,0,0,0,.15-.74,1.71,1.71,0,0,0-.26-.9h0a2.24,2.24,0,0,0-.72-.72,4.72,4.72,0,0,0-1.34-.56A15.5,15.5,0,0,0,92,2.91c-.89-.07-1.86-.1-2.88-.1a57,57,0,0,0-7,.45,20.19,20.19,0,0,0-2.64.5,6.21,6.21,0,0,0-.65.23c-.76-.42-1.94-1.05-3.27-1.7A38.34,38.34,0,0,0,72,.76,14,14,0,0,0,70.23.23,6.76,6.76,0,0,0,68.58,0l-.52,0a2.65,2.65,0,0,0-1.49.66,2.16,2.16,0,0,0-.51.77,2.22,2.22,0,0,0-.15.81,2.71,2.71,0,0,0,.16.89l-1.93-.64c-1.82-.58-3.79-1.16-5.66-1.63A27.21,27.21,0,0,0,53.4,0h-.26a4.45,4.45,0,0,0-1.37.2,2.94,2.94,0,0,0-1.6,1.25,3.5,3.5,0,0,0-.45,1.74,7.5,7.5,0,0,0,.52,2.46,18.67,18.67,0,0,0,1.34,2.76A80.63,80.63,0,0,0,27.63,19.71,61.93,61.93,0,0,0,9.69,38.63c-4.9,8.22-8.17,18.52-8.16,31.23V70q0,1,0,2A59.85,59.85,0,0,0,5.28,93.9,47.74,47.74,0,0,0,20.19,114a88.62,88.62,0,0,0,13.2,8.53c5.65,3.49,12.78,6,20.27,7.66a112.54,112.54,0,0,0,23.85,2.63,79.45,79.45,0,0,0,8.63-.44,86.72,86.72,0,0,0,29.36-8.48,41.83,41.83,0,0,0,9.68-6.56,17.86,17.86,0,0,0,3-3.58,9.48,9.48,0,0,0,1.42-3.82,12.72,12.72,0,0,0,.1-1.6,11.34,11.34,0,0,0-1.32-5.34,31.9,31.9,0,0,0-3.9-5.32,66.55,66.55,0,0,0,5.14-9.92A68.16,68.16,0,0,0,135.17,61.49Zm-8.49,46.85a11.35,11.35,0,0,1-.08,1.25,6.57,6.57,0,0,1-1,2.6,20.07,20.07,0,0,1-5.29,5.29,59.16,59.16,0,0,1-14.77,7.42,88.74,88.74,0,0,1-19.73,4.5,78.16,78.16,0,0,1-8.31.42,110.23,110.23,0,0,1-23.2-2.55,70.92,70.92,0,0,1-16.26-5.55,1.46,1.46,0,0,0-.24-.17h0l-2.92-1.62c-.36-.22-.73-.43-1.07-.66A42.65,42.65,0,0,1,24.28,111c-2.05-2.56-2.94-4.85-2.94-6.89a7.29,7.29,0,0,1,.76-3.2,12,12,0,0,1,2.41-3.22,22.78,22.78,0,0,1,5.17-3.32A39.13,39.13,0,0,0,36,90.58a11.68,11.68,0,0,0,4.24-9.14A12.18,12.18,0,0,0,40,79a87.1,87.1,0,0,1-1.92-16.83A37.68,37.68,0,0,1,39.3,51.89,17.86,17.86,0,0,1,45.79,42c3.11-2.29,7.28-3.65,12.71-4l1,0a15.17,15.17,0,0,1,8.82,2.7,23.51,23.51,0,0,1,7.52,9.39,32.79,32.79,0,0,1,1.62,4.06c.17.52.28.93.36,1.21a2.91,2.91,0,0,1,.08.32l0,.08h0a1.49,1.49,0,0,0,1.31,1.16A1.51,1.51,0,0,0,80.8,56l0,0a44.25,44.25,0,0,1,6-9.29,28.05,28.05,0,0,1,6.52-5.78,15.73,15.73,0,0,1,8.3-2.5A16.18,16.18,0,0,1,108.5,40a11.44,11.44,0,0,1,4.23,3.34,19.56,19.56,0,0,1,3.49,8.24,54,54,0,0,1,.92,10.77c0,3.9-.25,7.91-.5,11.67s-.51,7.3-.51,10.3a20.94,20.94,0,0,0,.69,6.14c1.53,4.78,4.22,7.78,6.31,10.31a21.54,21.54,0,0,1,2.57,3.61A8.37,8.37,0,0,1,126.68,108.34ZM123.17,94c-.24.43-.47.81-.67,1.14a21,21,0,0,1-2.83-5.6,18.35,18.35,0,0,1-.54-5.23c0-2.84.25-6.33.5-10.1s.51-7.84.51-11.87a47.87,47.87,0,0,0-1.9-14.84,19.71,19.71,0,0,0-3.16-6,14.44,14.44,0,0,0-5.33-4.21,19.26,19.26,0,0,0-8.11-1.87,18.84,18.84,0,0,0-10.15,3.12,35.56,35.56,0,0,0-9.95,10.19c-.69,1-1.28,2-1.77,2.82a35.1,35.1,0,0,0-3.19-6.41,24,24,0,0,0-6.52-6.94A18.24,18.24,0,0,0,59.54,35l-1.21,0a30.38,30.38,0,0,0-10.26,2.23,19.42,19.42,0,0,0-9.89,9.28C36,50.73,35.06,56,35.05,62.14a89.79,89.79,0,0,0,2,17.42,9.16,9.16,0,0,1,.19,1.88,8.65,8.65,0,0,1-3.13,6.8,36.3,36.3,0,0,1-5.81,3.49,25.26,25.26,0,0,0-5.86,3.84,14.84,14.84,0,0,0-3,4.05,10.4,10.4,0,0,0-1.06,4.51,12.06,12.06,0,0,0,1.51,5.62c-1.06-1-2.1-2-3.11-3.06A43.42,43.42,0,0,1,8.07,92.81,56.93,56.93,0,0,1,4.5,72c0-.65,0-1.31,0-2v-.15c0-12.2,3.1-21.91,7.74-29.69,7-11.67,17.45-19,26.24-23.44A80,80,0,0,1,49.7,12.12c1.43-.46,2.58-.78,3.36-1l.9-.22.23-.05.06,0a1.5,1.5,0,0,0,.92-2.33l0,0a24,24,0,0,1-1.37-2.26A13.38,13.38,0,0,1,53,4.52a4.36,4.36,0,0,1-.3-1.31.61.61,0,0,1,0-.15,1.91,1.91,0,0,1,.4,0h.13a26.65,26.65,0,0,1,4.49.78c2.66.66,5.65,1.62,8,2.41l2.85,1,.82.3.29.11A1.49,1.49,0,0,0,71.49,7a1.5,1.5,0,0,0-.25-1.89l0,0a18.29,18.29,0,0,1-1.38-1.47l-.4-.5h.08A29.63,29.63,0,0,1,75,5.38c.9.45,1.69.87,2.26,1.19l.66.37.18.1.06,0A1.48,1.48,0,0,0,79.81,7a1.13,1.13,0,0,0,.24-.25l.15,0a23.66,23.66,0,0,1,3.73-.59c1.62-.16,3.48-.26,5.18-.26A26.4,26.4,0,0,1,92.87,6l.24,0c-.15.2-.31.4-.49.61-.59.69-1.27,1.42-1.8,2l-.65.68-.26.26a1.5,1.5,0,0,0,.69,2.51,66,66,0,0,1,23.47,12.2A52.6,52.6,0,0,1,125,36.19a42.14,42.14,0,0,1,6.39,16,54.18,54.18,0,0,1,.8,9.35,65.12,65.12,0,0,1-5.33,25.1A66.77,66.77,0,0,1,123.17,94Z"/><path d="M111.77,90.3a12.57,12.57,0,0,0-2-1A92.7,92.7,0,0,0,111.87,71c0-4.5-.5-9-2.14-12.63a11.32,11.32,0,0,0-3.54-4.53,9.72,9.72,0,0,0-5.8-1.78c-.36,0-.73,0-1.1.05a11.45,11.45,0,0,0-6,2.13,13.72,13.72,0,0,0-4.8,7.39,33.8,33.8,0,0,0-1.2,9.53,79.45,79.45,0,0,0,1.88,15.88,20.41,20.41,0,0,0-5.66-.77,23.5,23.5,0,0,0-6.1.79,14.87,14.87,0,0,0-5,2.34,5.28,5.28,0,0,0-.44.36,105.92,105.92,0,0,0,1-14.06c0-5.28-.49-11-2.25-15.57a14.36,14.36,0,0,0-3.82-5.83,9.83,9.83,0,0,0-6.6-2.39,13.34,13.34,0,0,0-2,.15,12.24,12.24,0,0,0-5.56,2.2,13.23,13.23,0,0,0-4.63,6.8A28.62,28.62,0,0,0,47,69.87,70.07,70.07,0,0,0,49,85.35c.63,2.64,1.25,4.77,1.64,6.05a13.15,13.15,0,0,0-1.42.66,1.5,1.5,0,1,0,1.43,2.63A18.15,18.15,0,0,1,56.42,93a46.81,46.81,0,0,1,6.89-.45c2.22,0,4.25.11,5.8.23-.24.34-.48.67-.69,1a10.92,10.92,0,0,0-1.67,5.62,9.31,9.31,0,0,0,2.25,6c-1.25-.2-2.63-.43-4.06-.68-3.24-.58-6.68-1.28-9.21-2l.14-.1a1.5,1.5,0,1,0-1.45-2.62h0A6.48,6.48,0,0,0,52,102.59a7.21,7.21,0,0,0-1,3.26,1.5,1.5,0,1,0,3,.11c0-.16,0-.34.07-.53,1.49.44,3.25.87,5.16,1.27,6.17,1.3,13.54,2.35,14.78,2.53a24.88,24.88,0,0,0,4.49,1.4,65.67,65.67,0,0,1,6.56,1.71A29.18,29.18,0,0,1,91.17,115a7.73,7.73,0,0,1,.89.64l.09.1h0a1.45,1.45,0,0,0,1.23.6,1.47,1.47,0,0,0,1.25-.74,30.82,30.82,0,0,0,2-4.36,31.41,31.41,0,0,0,1-3.14,16.52,16.52,0,0,0,3.85-1.64c1-.54,1.94-1.1,2.82-1.57a1.5,1.5,0,0,0,2.84-.76,8.26,8.26,0,0,0-.62-2.62,5.59,5.59,0,0,0-.72-1.22,3.54,3.54,0,0,0-1.19-1,1.5,1.5,0,1,0-1.32,2.7h0s0,0,0,0c-1.1.57-2.21,1.22-3.27,1.8-.6.33-1.17.62-1.71.86a23.66,23.66,0,0,0,.27-3.41,16.87,16.87,0,0,0-2.54-9.19,43.35,43.35,0,0,1,7.14-.78,13.73,13.73,0,0,1,7,1.6,1.5,1.5,0,0,0,1.53-2.58ZM56,90q-1.24.19-2.43.48c-.42-1.35-1.11-3.72-1.77-6.66a65.69,65.69,0,0,1-1.79-14c0-3.81.56-7.39,1.93-10a9.14,9.14,0,0,1,2.67-3.18A9.33,9.33,0,0,1,58.81,55a11.82,11.82,0,0,1,1.52-.11A6.73,6.73,0,0,1,65,56.59a10,10,0,0,1,2.38,3.22,25.29,25.29,0,0,1,2.07,7.25c-1.39-2.28-3.27-3.69-5.33-3.69-4.32,0-7.82,6.1-7.82,13.62,0,5.9,2.18,10.59,5.18,12.59A48.23,48.23,0,0,0,56,90Zm37.88,20.12c-.35.92-.7,1.71-1,2.34l-.09,0a32,32,0,0,0-6.75-3c-3.5-1.17-6.35-1.59-8.65-2.25A13.37,13.37,0,0,1,74.24,106a10.78,10.78,0,0,1-2.74-2.25h0a6.36,6.36,0,0,1-1.75-4.31A8,8,0,0,1,71,95.36a12.49,12.49,0,0,1,2.27-2.74s0,0,0,0q.45-.4.93-.78a12,12,0,0,1,4-1.82,19.91,19.91,0,0,1,5.31-.69,16.93,16.93,0,0,1,5.45.82,9.52,9.52,0,0,1,1.26.53,1.59,1.59,0,0,0,.86.47,6.78,6.78,0,0,1,1.65,1.42,13.52,13.52,0,0,1,2.88,8.72A26,26,0,0,1,93.85,110.16Zm1.57-21-.86.12a1.46,1.46,0,0,0-.63-.14,1.23,1.23,0,0,0-.39.06c-.3-.23-.59-.45-.91-.65a79.13,79.13,0,0,1-2.3-17.34c0-4.12.55-8.14,2-11a9.26,9.26,0,0,1,2.78-3.46,8.58,8.58,0,0,1,4.44-1.56c.29,0,.58,0,.85,0a6.67,6.67,0,0,1,4,1.21,7.54,7.54,0,0,1,2,2.31,17,17,0,0,1,1.87,5.5,39.19,39.19,0,0,1,.53,6.28c-1.23-4.7-4-8-7.11-8-4.32,0-7.82,6.09-7.82,13.61,0,5.87,2.15,10.54,5.13,12.56l-1.57.22Z"/><path class="cls-1" d="M24.69,130.85S8.41,154.47,6.09,167.64C3.93,179.84,39,218.86,53.74,212s-10.59-37.72-14-42.39S50.48,146.81,53,139.17C56.26,129.46,36.84,117.06,24.69,130.85Z"/></g></g></svg>